<svg width="130" height="130" viewBox="0 0 130 130" fill="none" xmlns="http://www.w3.org/2000/svg">
<g clip-path="url(#clip0)">
<path d="M78 32.4998C78 42.0728 85.7604 49.8332 95.3333 49.8332C104.906 49.8332 112.667 42.0728 112.667 32.4998C112.667 22.9269 104.906 15.1665 95.3333 15.1665C85.7649 15.1773 78.0107 22.9314 78 32.4998ZM95.3333 19.4998C102.513 19.4998 108.333 25.3201 108.333 32.4998C108.333 39.6795 102.513 45.4998 95.3333 45.4998C88.1536 45.4998 82.3333 39.6795 82.3333 32.4998C82.3405 25.3231 88.1566 19.507 95.3333 19.4998Z" fill="white"/>
<path d="M93.1667 58.4999V62.8333C93.1667 64.0299 94.1368 64.9999 95.3334 64.9999C96.53 64.9999 97.5001 64.0299 97.5001 62.8333V58.4999C97.5001 57.3033 96.53 56.3333 95.3334 56.3333C94.1368 56.3333 93.1667 57.3033 93.1667 58.4999Z" fill="white"/>
<path d="M97.5001 6.5V2.16667C97.5001 0.97005 96.53 0 95.3334 0C94.1368 0 93.1667 0.97005 93.1667 2.16667V6.5C93.1667 7.69662 94.1368 8.66667 95.3334 8.66667C96.53 8.66667 97.5001 7.69662 97.5001 6.5Z" fill="white"/>
<path d="M125.667 34.6666C126.863 34.6666 127.833 33.6965 127.833 32.4999C127.833 31.3033 126.863 30.3333 125.667 30.3333H121.333C120.137 30.3333 119.167 31.3033 119.167 32.4999C119.167 33.6965 120.137 34.6666 121.333 34.6666H125.667Z" fill="white"/>
<path d="M65 34.6666H69.3334C70.53 34.6666 71.5 33.6965 71.5 32.4999C71.5 31.3033 70.53 30.3333 69.3334 30.3333H65C63.8034 30.3333 62.8334 31.3033 62.8334 32.4999C62.8334 33.6965 63.8034 34.6666 65 34.6666Z" fill="white"/>
<path d="M118.313 9.52036C117.467 8.67453 116.096 8.67453 115.25 9.52036L112.186 12.584C111.623 13.128 111.397 13.9336 111.595 14.6911C111.793 15.4486 112.385 16.0402 113.142 16.2385C113.9 16.4368 114.706 16.2109 115.25 15.6477L118.313 12.584C119.159 11.7379 119.159 10.3664 118.313 9.52036Z" fill="white"/>
<path d="M72.3537 55.4794C73.1998 56.3253 74.5713 56.3253 75.4174 55.4794L78.4811 52.4158C79.3022 51.5656 79.2904 50.2143 78.4547 49.3785C77.6189 48.5427 76.2675 48.531 75.4174 49.3521L72.3537 52.4158C71.5079 53.2619 71.5079 54.6334 72.3537 55.4794Z" fill="white"/>
<path d="M115.25 49.3521C114.399 48.531 113.048 48.5427 112.212 49.3785C111.376 50.2143 111.365 51.5656 112.186 52.4158C115.518 55.7481 115.642 56.1164 116.784 56.1164C117.66 56.1163 118.45 55.5884 118.785 54.7789C119.12 53.9694 118.935 53.0376 118.315 52.4179L115.25 49.3521Z" fill="white"/>
<path d="M75.4174 9.52032C74.5672 8.69921 73.2158 8.71096 72.3801 9.54671C71.5443 10.3825 71.5326 11.7338 72.3537 12.584C75.6839 15.9163 75.8074 16.2825 76.9492 16.2825C77.8254 16.2823 78.6152 15.7544 78.9505 14.9449C79.2858 14.1354 79.1005 13.2036 78.481 12.584L75.4174 9.52032Z" fill="white"/>
<path d="M123.5 95.3335C106.964 95.3335 108.55 95.4136 108.656 95.1753C109.948 92.308 109.324 88.9401 107.092 86.7253L92.1635 71.797C87.9272 67.574 81.0729 67.574 76.8365 71.797L66.0899 82.5436C64.3982 84.2324 61.6585 84.2324 59.9669 82.5436L38.0835 60.6603C43.8072 57.2479 46.6279 50.4954 45.0324 44.0255C43.4369 37.5557 37.8001 32.8889 31.1461 32.5289C24.4922 32.1689 18.3847 36.2004 16.1005 42.4603C12.6942 40.4932 8.39872 41.0076 5.5532 43.7235C2.17278 47.1073 2.17278 52.59 5.5532 55.9738L6.34837 56.769C3.38074 57.5612 1.06454 59.8818 0.278047 62.851C-0.508442 65.8201 0.35522 68.9831 2.54154 71.1405L26.7497 95.3335H17.3334C12.5469 95.3335 8.6667 99.2137 8.6667 104C8.6667 108.787 12.5469 112.667 17.3334 112.667H21.6667V123.5C21.6667 127.09 24.5769 130 28.1667 130H30.3334C33.9232 130 36.8334 127.09 36.8334 123.5V112.667H101.89C98.5146 117.119 99.0895 123.409 103.216 127.175C107.342 130.941 113.658 130.941 117.784 127.175C121.911 123.409 122.485 117.119 119.11 112.667H123.5C127.09 112.667 130 109.757 130 106.167V101.833C130 98.2436 127.09 95.3335 123.5 95.3335V95.3335ZM79.9002 74.852C82.4429 72.3171 86.5572 72.3171 89.0999 74.852L104.028 89.7825C104.97 90.7212 105.245 92.1389 104.722 93.3617C104.2 94.5844 102.985 95.3655 101.656 95.3335C100.751 95.2832 99.8992 94.8914 99.2724 94.2371L86.0362 80.9771C85.6293 80.5689 85.0764 80.3397 84.5 80.3401C83.3019 80.3401 83.1459 80.7973 79.1722 84.7753L74.5745 80.1776L79.9002 74.852ZM84.5 85.5726L94.25 95.3335H74.75L84.5 85.5726ZM69.1535 85.5986L71.5109 83.2413L76.1107 87.8411L68.6292 95.3335H51.337L48.5204 92.5168L57.3149 85.9301C60.7294 88.9635 65.9141 88.8183 69.1535 85.5986V85.5986ZM30.3334 36.8335C35.6651 36.8234 40.2082 40.7016 41.0348 45.9689C41.8614 51.2362 38.7247 56.3197 33.6462 57.9433C33.0107 57.7544 32.3571 57.6324 31.6962 57.5793L19.734 45.641C20.6808 40.5332 25.1386 36.829 30.3334 36.8335ZM8.60387 46.785C10.3184 45.1254 13.0405 45.1254 14.755 46.785L15.7019 47.7123C15.873 47.929 15.4245 47.4588 29.1937 61.202C29.6171 61.6327 30.2074 61.8574 30.81 61.8173C33.5725 61.917 34.4479 63.1411 36.2527 64.946L35.6287 65.3641C34.9704 65.7882 34.5921 66.5345 34.6393 67.3161C34.6865 68.0977 35.1517 68.7931 35.8562 69.1349C36.5607 69.4768 37.3949 69.4118 38.038 68.9651L39.377 68.0703L48.0697 76.7608C47.4859 77.621 47.5953 78.7745 48.3304 79.5096C49.0655 80.2447 50.219 80.3541 51.0792 79.7703L54.1819 82.8751L45.4307 89.4293C12.1962 56.2858 14.8525 58.8273 13.7735 58.0516C13.5569 57.9086 14.885 59.1631 8.61687 52.895C6.93313 51.2084 6.92733 48.4787 8.60387 46.785V46.785ZM13 104C13 101.607 14.9401 99.6668 17.3334 99.6668H31.083L39.7497 108.333H17.3334C14.9401 108.333 13 106.393 13 104ZM32.5 123.5C32.5 124.697 31.53 125.667 30.3334 125.667H28.1667C26.9701 125.667 26 124.697 26 123.5V112.667H32.5V123.5ZM117 119.167C117 122.757 114.09 125.667 110.5 125.667C106.91 125.667 104 122.757 104 119.167C104 115.577 106.91 112.667 110.5 112.667C114.09 112.667 117 115.577 117 119.167ZM125.667 106.167C125.667 107.363 124.697 108.333 123.5 108.333H45.877L5.6052 68.0616C3.91643 66.37 3.91643 63.6303 5.6052 61.9386C7.3262 60.3223 10.0072 60.3223 11.7282 61.9386L48.8215 99.0298C49.229 99.4346 49.779 99.6633 50.3534 99.6668H123.5C124.697 99.6668 125.667 100.637 125.667 101.833V106.167Z" fill="white"/>
<path d="M110.5 121.334C111.697 121.334 112.667 120.364 112.667 119.167C112.667 117.97 111.697 117 110.5 117C109.304 117 108.333 117.97 108.333 119.167C108.333 120.364 109.304 121.334 110.5 121.334Z" fill="white"/>
</g>
<defs>
<clipPath id="clip0">
<rect width="130" height="130" fill="white"/>
</clipPath>
</defs>
</svg>
