<svg width="120" height="80" viewBox="0 0 120 80" fill="none" xmlns="http://www.w3.org/2000/svg">
<path d="M107.499 0H12.4992C5.60932 0 -0.000671387 5.60999 -0.000671387 12.5001V67.5001C-0.000671387 74.39 5.60932 80 12.4992 80H107.499C114.389 80 119.999 74.39 119.999 67.5001V12.5001C119.999 5.60999 114.389 0 107.499 0ZM114.999 67.4999C114.999 71.6349 111.634 74.9999 107.499 74.9999H12.4992C8.36416 74.9999 4.99924 71.6349 4.99924 67.4999V12.5001C4.99924 8.36506 8.36416 5.00015 12.4992 5.00015H107.499C111.634 5.00015 114.999 8.36506 114.999 12.5001V67.4999H114.999Z" fill="white"/>
<path d="M117.499 15H2.4994C1.1194 15 -0.000671387 16.1201 -0.000671387 17.5001V32.5001C-0.000671387 33.8801 1.1194 35.0001 2.4994 35.0001H117.499C118.879 35.0001 119.999 33.8801 119.999 32.5001V17.5001C119.999 16.1201 118.879 15 117.499 15ZM114.999 30H4.99924V19.9999H114.999V30H114.999Z" fill="white"/>
<path d="M47.4993 50H17.4994C16.1194 50 14.9993 51.1201 14.9993 52.5001C14.9993 53.8801 16.1194 54.9999 17.4994 54.9999H47.4993C48.8793 54.9999 49.9994 53.8798 49.9994 52.4998C49.9994 51.1198 48.8793 50 47.4993 50Z" fill="white"/>
<path d="M47.4993 60H17.4994C16.1194 60 14.9993 61.1201 14.9993 62.5001C14.9993 63.8801 16.1194 65.0002 17.4994 65.0002H47.4993C48.8793 65.0002 49.9994 63.8801 49.9994 62.5001C49.9992 61.1201 48.8793 60 47.4993 60Z" fill="white"/>
<path d="M97.4992 45H92.4993C88.3642 45 84.9993 48.3649 84.9993 52.5V57.4999C84.9993 61.635 88.3642 64.9999 92.4993 64.9999H97.4992C101.634 64.9999 104.999 61.635 104.999 57.4999V52.5C104.999 48.3652 101.634 45 97.4992 45ZM99.9993 57.5001C99.9993 58.8801 98.8792 60.0002 97.4992 60.0002H92.4993C91.1193 60.0002 89.9992 58.8801 89.9992 57.5001V52.5002C89.9992 51.1202 91.1193 50.0001 92.4993 50.0001H97.4992C98.8792 50.0001 99.9993 51.1202 99.9993 52.5002V57.5001Z" fill="white"/>
</svg>
