<svg width="102" height="114" viewBox="0 0 102 114" fill="none" xmlns="http://www.w3.org/2000/svg">
<path d="M80.85 80.9718L70.3107 77.445L66.5272 69.8464C69.9358 66.3627 72.3024 61.7533 73.1004 56.9454L73.5723 54.1055H77.6077C81.2757 54.1055 84.2599 51.109 84.2599 47.4258V33.3984C84.2599 14.9825 69.3391 0 50.999 0C32.612 0 17.7382 14.9396 17.7382 33.3984V47.4258C17.7382 50.3283 19.5921 52.8034 22.1729 53.7225V56.332C22.1729 60.0152 25.1571 63.0117 28.8251 63.0117H30.7724C31.7337 65.1085 32.9778 67.0505 34.4919 68.795C34.8059 69.1575 35.1334 69.5088 35.4689 69.8506L31.6873 77.445L21.1478 80.9721C8.89342 85.0752 -0.000976562 98.0291 -0.000976562 111.773C-0.000976562 113.003 0.99175 114 2.21641 114H99.7816C101.006 114 101.999 113.003 101.999 111.773C101.999 98.0291 93.1048 85.0752 80.85 80.9718ZM79.8251 47.4258C79.8251 48.6535 78.8304 49.6523 77.6077 49.6523H74.2235C74.7872 45.2682 75.1628 40.6029 75.3138 36.008C75.3183 35.8784 75.3218 35.7524 75.3258 35.625H79.8251V47.4258ZM24.3903 49.6523C23.1677 49.6523 22.1729 48.6535 22.1729 47.4258V35.625H26.6738C26.6811 35.8572 26.6889 36.0906 26.6975 36.3255C26.6977 36.3335 26.6982 36.3413 26.6984 36.3493C26.6984 36.35 26.6984 36.3506 26.6984 36.3513C26.8536 40.8205 27.2244 45.3647 27.7752 49.6521H24.3903V49.6523ZM28.8251 58.5586C27.6024 58.5586 26.6077 57.5598 26.6077 56.332V54.1055H28.4255L28.8974 56.9463C28.9874 57.4863 29.0981 58.0242 29.226 58.5586H28.8251ZM26.6115 31.1719H22.2572C23.3803 16.2492 35.7826 4.45312 50.999 4.45312C66.1478 4.45312 78.6047 16.2477 79.7406 31.1719H75.3868C75.2271 18.8752 65.2549 8.90625 52.9838 8.90625H49.0147C36.7439 8.90625 26.7709 18.8752 26.6115 31.1719ZM49.0145 13.3594H52.9836C62.9195 13.3594 70.9613 21.52 70.9555 31.4858C70.9555 32.1865 70.95 32.7966 70.9382 33.3517C70.9382 33.3588 70.938 33.3662 70.938 33.3735L68.1645 32.9756C60.6298 31.8953 53.5155 28.3234 48.1322 22.9178C47.7162 22.5003 47.1523 22.2656 46.5642 22.2656C40.6092 22.2656 34.9087 24.99 31.1405 29.5928C32.0692 20.5265 39.7021 13.3594 49.0145 13.3594ZM33.8231 58.5586C32.7131 54.8507 31.443 43.9405 31.1622 36.9491L34.1466 32.9534C36.8875 29.2849 41.1518 27.0055 45.6879 26.7439C51.6565 32.4475 59.3779 36.2139 67.5374 37.3838L70.8019 37.8522C70.5837 42.5024 70.1378 47.1688 69.4989 51.4605C69.4987 51.4619 69.4985 51.4634 69.4983 51.465C69.2952 52.8448 69.1351 53.7327 68.7262 56.2129C67.5518 63.2856 62.2962 69.6814 55.3582 71.4232C52.5029 72.1391 49.4947 72.1388 46.641 71.4232C42.3088 70.3358 38.3366 67.3259 35.7731 63.0117H40.2935C41.2088 65.6032 43.6734 67.4648 46.5642 67.4648H50.999C54.6744 67.4648 57.6512 64.4759 57.6512 60.7852C57.6512 57.102 54.667 54.1055 50.999 54.1055H46.5642C43.6091 54.1055 41.1809 56.0221 40.2897 58.5586H33.8231ZM46.3778 75.9293C47.8987 76.2511 49.4493 76.4156 50.999 76.4156C52.2122 76.4156 53.4255 76.3137 54.6251 76.1159L50.707 80.2767L46.3778 75.9293ZM47.6585 83.5137L40.6254 90.982C38.6892 87.2605 37.0255 83.3874 35.6609 79.4224L38.302 74.1183L47.6585 83.5137ZM63.3202 73.3639L66.3367 79.4221C64.9699 83.3939 63.3058 87.2683 61.3715 90.9854L53.8439 83.4266L63.3202 73.3639ZM44.3468 60.7852C44.3468 59.5559 45.3398 58.5586 46.5642 58.5586H50.999C52.2217 58.5586 53.2164 59.5574 53.2164 60.7852C53.2164 62.0147 52.2232 63.0117 50.999 63.0117H46.5642C45.3416 63.0117 44.3468 62.0129 44.3468 60.7852ZM4.5225 109.547C5.40125 98.5167 12.7118 88.4909 22.5503 85.1965L31.8842 82.0731C33.5943 86.8212 35.7128 91.4362 38.1956 95.8199C38.1998 95.8275 38.2038 95.835 38.208 95.8424C38.208 95.8426 38.2082 95.8426 38.2082 95.8428C40.0223 99.0466 42.064 102.177 44.2777 105.15L47.0055 109.547H4.5225ZM50.999 107.562L47.9918 102.714C47.9581 102.66 47.9222 102.607 47.884 102.556C46.0884 100.151 44.4134 97.6354 42.8878 95.0609L50.7957 86.6636L59.1282 95.0306C57.5924 97.6239 55.9117 100.15 54.1145 102.555C54.0058 102.701 54.1599 102.472 50.999 107.562ZM54.9925 109.547L57.7202 105.15C59.9435 102.166 61.9999 99.0103 63.8322 95.7689C63.8433 95.7493 63.8537 95.7293 63.8648 95.7097C63.8661 95.7072 63.8674 95.705 63.8688 95.7026C66.3201 91.3608 68.4164 86.7858 70.1138 82.0731L79.4475 85.1965C89.2863 88.4909 96.5968 98.5167 97.4755 109.547H54.9925Z" fill="white"/>
</svg>
