<svg width="108" height="96" viewBox="0 0 108 96" fill="none" xmlns="http://www.w3.org/2000/svg">
<path d="M106.724 12.2834C105.851 12.2834 104.833 10.0475 104.833 10.9209V72.421C103.086 71.4768 100.478 70.1386 98.6022 69.5231C97.8178 69.266 95.7339 68.583 94.8078 70.1386C94.1296 71.279 94.0316 73.1181 94.5589 74.8246C95.71 78.5531 98.2421 78.4213 99.3364 79.3004C100.281 80.0577 100.328 81.7938 100.239 83.5563C100.233 83.6683 100.224 83.8603 100.205 83.9674C99.9922 84.0803 99.4163 84.1619 99.188 84.194C98.3707 84.3102 93.924 85.222 93.1181 85.4173C92.2694 85.6224 92.9129 85.8433 93.1181 86.6929C93.3225 87.5391 93.2615 88.5642 93.9685 88.3936C94.6755 88.2231 98.9153 87.4282 99.6322 87.3268C102.026 86.9882 103.277 86.1304 103.399 83.7161C103.481 82.0904 103.652 78.7072 101.317 76.8326C99.544 75.4088 98.2504 76.0548 97.5821 73.8918C97.4124 73.3431 97.3703 72.8339 97.3885 72.4449C99.0422 72.9385 102.671 74.7595 105.616 76.4833C106.668 77.0996 107.997 76.3399 107.997 75.1187V10.9209C107.998 10.0475 107.598 12.2834 106.724 12.2834Z" fill="white"/>
<path d="M92.2678 85.8426C90.1418 87.5433 86.8968 89.5434 86.2344 89.5434H86.2302C85.0215 89.5335 84.228 87.7323 78.0275 89.7123C77.3338 89.9339 74.5034 90.8774 73.5871 90.4275C73.2015 90.238 71.6261 88.2588 71.3228 87.1596C71.1663 86.5927 71.2602 85.9805 71.542 85.7341C72.3108 85.0609 73.3383 85.4408 75.0785 82.5585C75.3274 82.1473 75.5614 81.7592 75.8176 81.4816C76.6573 80.5719 78.2129 80.3041 79.8691 80.089C81.0581 79.9349 82.0148 79.8394 82.8594 79.7561C84.8451 79.5584 86.2805 79.4167 88.7022 78.7319C90.0741 78.3438 90.9887 77.3674 91.2771 75.9815C91.5721 74.5667 91.123 72.5735 90.3716 71.958C88.1106 70.109 85.9806 70.8967 84.7075 71.3672C84.4455 71.4644 84.0516 71.6103 83.9157 71.6194C83.8069 71.382 83.7674 71.2329 83.7534 71.1538C84.2585 70.7962 87.8848 68.995 88.4772 65.643C88.8002 63.8122 88.0858 61.3913 86.0407 61.2496C84.3837 61.1359 82.3023 62.5655 81.4322 63.3375C80.4385 64.2208 79.6623 65.2104 78.8227 65.9932C78.1816 65.4403 77.3593 65.1346 76.4941 65.1544C74.4935 65.1989 73.9703 66.5857 73.747 67.1773C73.7453 67.1814 73.7437 67.1847 73.7429 67.1888C73.2584 67.0018 72.0834 66.5848 71.0732 67.5934C69.8611 68.803 69.8454 69.9574 68.7166 76.3037C68.4793 77.1054 66.0609 79.5155 65.1018 80.0511C64.2861 80.0487 63.0023 80.033 62.4107 80.0594C59.8135 80.1722 58.9434 82.1276 59.6471 83.5563L61.145 86.5976C61.131 86.5985 61.117 86.5985 61.103 86.5985C60.4784 86.6059 59.872 86.7319 59.2985 86.9734C59.2944 86.9388 59.2903 86.9058 59.2861 86.8753C58.8478 83.5176 56.9057 84.0721 56.4261 82.4909C56.3289 82.1721 56.3816 81.6711 56.4368 81.1412C56.5415 80.1418 56.6708 78.8992 55.9227 77.7366C55.4044 76.9307 54.643 76.4841 54.0877 76.1578L45.5109 71.1233C43.2499 69.7967 40.4986 71.7932 41.0449 74.3541C41.2353 75.2465 41.6547 76.1933 42.2249 77.0197C42.8222 77.8857 43.2622 79.2065 43.7286 80.6048C45.9995 87.4191 47.8543 86.68 48.8109 88.0569C44.8138 89.278 46.1808 91.8711 43.095 92.5937C42.4828 92.7371 42.0642 92.7569 41.8697 92.6629C41.667 92.5484 41.2715 92.2147 40.8867 91.8439C42.093 91.2399 43.0019 90.3286 43.9338 89.7436C44.3927 89.4552 44.6721 88.9526 44.6745 88.4104C44.6885 85.2793 43.8621 84.096 42.9063 82.7266C40.4385 79.1925 40.0701 75.6774 38.0234 72.8322C36.9728 71.3722 34.9953 70.8275 33.3209 71.5378C31.4859 72.3156 29.4845 72.6081 27.535 72.384C26.0164 72.2101 23.4752 71.9185 22.3266 74.032C21.9303 74.7612 21.9105 75.4986 21.8067 75.8818C21.0816 76.115 17.3786 75.5802 14.7806 80.0206C14.2302 80.9616 13.7959 82.0229 13.4128 83.3611C13.1565 84.2584 12.2666 83.8068 10.3468 83.4558C9.34811 83.2737 8.40383 83.1007 7.4958 82.8395C5.68305 82.3179 3.61074 81.1174 3.23336 79.3104C3.01583 78.268 3.36355 76.9966 3.67007 75.8752L5.50672 69.1532C5.61054 68.7709 6.025 68.5665 6.3892 68.7173L11.1897 70.7105C12.6795 71.3293 16.1682 72.7779 18.734 70.736C20.1447 69.6138 21.4804 67.2753 19.8365 62.5078C19.1633 60.5566 18.5791 58.5601 19.4221 57.4346C20.0259 56.6283 26.4159 57.1615 28.0631 57.3543C28.9315 57.4565 27.9617 57.3724 28.0631 56.504C28.1644 55.6363 28.9315 54.4793 28.0631 54.378C25.9561 54.1308 18.7087 53.1024 17.0713 55.312C17.0482 55.3375 17.0259 55.3639 17.0037 55.3903C14.9215 57.9627 16.1253 61.4531 16.8447 63.5394C17.2237 64.6378 17.9743 67.2976 16.7639 68.26C15.7842 69.0395 13.9187 68.4174 12.4026 67.7887L7.60209 65.7955C5.4787 64.9146 3.06115 66.0987 2.45388 68.3201L0.617229 75.0413C0.236551 76.4347 -0.237237 78.17 0.136026 79.9572C0.701275 82.6615 3.12542 84.8755 6.62156 85.8808C8.38076 86.3867 10.1441 86.5878 11.7788 86.9668C13.8264 87.4406 15.8798 86.24 16.4549 84.232C16.7623 83.1551 17.0984 82.3253 17.5121 81.6192C19.797 77.7135 22.5474 80.2167 24.3437 77.8041C25.0169 76.8994 24.9716 75.8315 25.1034 75.5456C25.3794 75.3223 26.6838 75.4715 27.1741 75.5283C29.6666 75.8142 32.2193 75.4418 34.5569 74.4505C34.8824 74.3129 35.2606 74.4093 35.4559 74.6804C37.1796 77.0766 37.5545 80.5875 40.3124 84.5377C41.0251 85.5594 41.405 86.1033 41.4915 87.5864C40.3157 88.4549 39.4324 89.3052 38.5631 89.227C37.4054 89.1256 36.5155 90.2553 36.869 91.5687C37.2752 93.0749 39.6227 95.0871 40.4648 95.4974C41.5352 96.0198 42.6624 95.9449 43.8168 95.6746C46.9166 94.9487 48.291 92.354 48.7442 91.4987C48.8735 91.4204 49.1001 91.3166 49.3432 91.2218C50.1482 91.3668 50.9994 91.062 51.5086 90.3492C52.2395 89.325 52.3029 87.846 51.6668 86.6685C51.0727 85.5693 50.1252 84.9307 49.1405 84.2617C48.029 83.5003 47.3689 81.5203 46.7312 79.6045C46.2154 78.0587 45.6831 76.4594 44.8303 75.2234C44.5773 74.8576 44.3672 74.4365 44.2362 74.0443L52.4867 78.8868C53.4079 79.4282 53.4392 79.387 53.2909 80.8133C53.2093 81.5944 53.1162 82.4802 53.3988 83.4097C53.8644 84.9456 55.0913 85.7926 56.0298 86.6298C56.2341 87.1481 56.0471 88.8001 57.2872 89.7419C57.8969 90.205 59.2754 90.4382 60.5048 89.9001C61.1986 89.5969 62.9875 89.9784 64.1048 88.5719C64.8175 87.6738 64.7895 86.4436 64.1155 85.468L63.0039 83.2119C63.6821 83.2045 64.6651 83.2169 65.3531 83.2169C65.7082 83.2169 66.6525 83.2169 69.108 80.8298C70.7271 79.2552 71.6425 77.9244 71.8296 76.873C72.937 70.6462 72.9032 70.7336 73.0524 70.3018C73.5509 70.4542 74.271 70.5696 75.0612 70.212C76.1365 69.7258 76.4966 68.8508 76.6878 68.3465C76.7372 68.3712 76.7825 68.4091 76.8171 68.4586C77.5084 69.4597 78.4181 69.5437 78.8985 69.5034C79.3401 69.4679 79.7678 69.3015 80.1378 69.0222C81.5154 67.9782 82.4548 66.6631 83.5342 65.704C84.1134 65.1898 84.8674 64.7548 85.3774 64.5438C85.3997 64.7161 85.3997 64.9311 85.3436 65.1824C85.1096 66.2379 84.0228 67.361 82.2842 68.3449C81.4668 68.8079 79.7142 70.1947 81.1018 73.0712C81.6028 74.1102 82.6608 74.767 83.8638 74.7843C84.5609 74.7933 85.1945 74.561 85.8051 74.336C86.8227 73.9595 87.4019 73.7798 88.09 74.2066C88.1979 74.5906 88.2721 75.1888 88.1312 75.4929C88.1056 75.5481 88.071 75.6231 87.8411 75.6882C85.6897 76.2963 84.4389 76.4207 82.5471 76.6077C81.6802 76.6942 80.6981 76.7915 79.4621 76.9521C77.7565 77.1738 75.1807 77.5075 73.4932 79.3359C73.0186 79.8501 72.6742 80.4203 72.3701 80.9237C71.0575 83.0982 71.0262 81.9809 69.4573 83.3553C68.2502 84.4116 67.7847 86.2359 68.2725 88.0025C68.7289 89.6538 70.6974 92.5336 72.1913 93.2686C74.1647 94.2376 76.902 93.3946 78.9899 92.7272C84.5213 90.9614 83.5037 92.6868 86.2047 92.7091H86.236C88.1864 92.7091 91.4174 89.5434 93.9686 88.3937C94.7308 87.9661 93.971 87.8803 93.5434 87.1182C93.1157 86.3551 93.433 84.9104 92.2678 85.8426Z" fill="white"/>
<path d="M106.408 0.327881C102.899 0.350128 95.9845 0.381439 94.9364 0.336945C92.1563 0.21994 89.4009 1.24579 87.3756 3.15578L78.0407 11.96C77.4285 12.5376 76.4035 13.5041 76.293 14.9519C76.1596 16.7053 77.3535 17.3694 76.4834 18.3277C74.9211 20.049 71.631 18.2692 72.352 17.4699C73.0062 16.7457 73.55 15.9299 73.9694 15.0458C74.9145 13.0559 73.8911 10.6721 71.7892 9.9742C65.48 7.878 62.2005 6.45911 58.6442 7.20563C54.0876 8.16227 51.3957 12.2912 49.1809 16.2834C44.7528 24.2612 43.5852 22.8274 40.5398 24.9871C39.8056 25.5078 34.9944 30.5877 36.2131 33.4807C36.8492 34.9927 38.3052 36.0127 40.0133 36.1429C41.4346 36.2525 42.6615 35.8727 43.7261 35.2967C43.6305 37.9705 43.8201 41.2434 45.0898 42.8584C46.161 44.2204 48.0207 44.5796 49.8804 42.9754C52.1323 41.0324 54.5359 35.9254 54.6191 33.6735C54.6908 31.7346 53.6633 30.8159 53.1112 30.3223C53.0725 30.2877 53.0272 30.2474 52.986 30.2086C53.159 28.9183 53.693 28.2657 54.5532 25.2483C55.0995 23.335 55.5708 21.6821 57.0358 20.7658C57.6134 20.4041 58.3311 20.4346 58.781 20.8392C58.9343 20.9784 59.343 21.3468 58.7868 22.5613C58.1803 23.8863 56.9988 25.109 56.2794 26.7957C55.3673 28.9339 55.6071 31.892 57.8475 33.1626C61.2991 35.1196 64.1946 31.1916 66.3995 31.5155C66.0081 33.4114 65.494 35.4178 64.3635 36.901C63.0122 38.6734 60.9695 39.1323 59.7739 38.5514C59.4822 38.4097 59.1526 38.3611 58.8321 38.413C57.4091 38.6412 55.8971 39.9645 55.7274 42.4052C55.6458 43.5678 55.865 44.7131 55.6812 45.4967C55.1654 47.6951 51.4493 48.1714 49.2797 48.2595L42.9952 48.5158C42.9697 47.1406 43.9848 44.0746 42.2075 42.3895C40.553 40.8198 36.5015 41.1626 35.5852 43.4871C35.2573 44.3201 35.3149 45.2314 35.371 46.1131C35.4806 47.8484 35.4888 47.7108 34.2776 48.5026C30.2532 51.1336 30.7246 52.7857 29.6946 53.7225C29.4581 53.9376 28.3745 54.2692 28.063 54.3779C27.2382 54.6647 26.4999 55.2531 26.7874 56.0787C27.075 56.9019 28.063 57.7795 29.7638 57.3543C31.0394 56.9291 31.1637 56.6633 31.8237 56.0634C33.6538 54.399 32.6296 53.3608 36.0096 51.1509C39.7199 48.7259 38.2516 46.7723 38.5054 44.7585C38.8375 44.5838 39.6293 44.5368 39.982 44.6736C40.3527 45.4003 39.7941 47.1076 39.8328 48.6196C39.8847 50.6186 40.9229 51.768 43.1073 51.6782L49.4091 51.4211C56.1946 51.1451 58.2397 48.44 58.7612 46.2202C59.0884 44.8301 58.8115 43.6601 58.8832 42.6252C58.9129 42.2041 59.048 41.8852 59.1675 41.704C61.9616 42.5691 65.0993 41.1552 66.8799 38.8192C68.6391 36.5113 69.22 33.5771 69.6864 31.2188C69.9138 30.0677 68.5551 28.2533 65.9875 28.344C62.9009 28.4544 60.6688 31.1249 59.4081 30.4105C58.8898 30.1164 58.786 28.985 59.1905 28.0366C59.7443 26.7389 60.9193 25.5037 61.6641 23.878C62.6323 21.7637 62.353 19.7993 60.8995 18.4892C59.4064 17.1436 57.1281 16.9772 55.3582 18.083C52.8616 19.6444 52.1439 22.1608 51.5111 24.3806C50.6615 27.3585 49.9694 28.269 49.812 30.1361C49.6275 32.3205 51.4962 32.4853 51.4567 33.5565C51.399 35.1303 49.0243 39.9209 47.5041 40.8132C46.9709 40.0099 46.5697 36.7041 47.1588 32.126C47.345 30.68 45.6295 29.7728 44.5394 30.7418C42.9763 32.1293 41.7552 33.1016 40.2547 32.9879C39.7809 32.9517 39.3673 32.7028 39.172 32.3427C39.2519 31.2955 41.5665 28.1767 42.3707 27.567C45.0305 25.6809 47.0204 26.6952 51.947 17.8185C53.646 14.7574 55.8625 11.0223 59.2935 10.3021C61.9105 9.75337 64.7013 10.9531 70.7913 12.976C71.0847 13.0732 71.2437 13.4094 71.111 13.6887C70.2747 15.4504 68.8212 16.0115 69.0981 18.2313C69.5265 21.6599 75.5918 24.0181 78.826 20.4536C81.0276 18.0278 79.4102 15.691 79.4481 15.1933C79.4654 14.9659 80.0273 14.436 80.2119 14.2614L89.5468 5.45632C90.9541 4.12889 92.8674 3.41533 94.8004 3.49773C95.8659 3.54387 101.899 3.51668 104.836 3.50102V11.0437C104.836 11.918 105.543 12.6258 106.418 12.6258C107.291 12.6258 108 11.918 108 11.0445V1.90992C108 1.06534 107.341 0.345184 106.408 0.327881Z" fill="white"/>
<g clip-path="url(#clip0)">
<path d="M52.7245 53.5276C50.263 53.5276 48.2599 55.5446 48.2599 58.0244C48.2599 61.5479 52.3048 65.1861 52.4769 65.3388C52.5479 65.4018 52.6362 65.4331 52.7245 65.4331C52.8128 65.4331 52.9011 65.4019 52.972 65.3393C53.1441 65.1861 57.189 61.5479 57.189 58.0244C57.189 55.5446 55.1859 53.5276 52.7245 53.5276ZM52.7245 60.4725C51.3568 60.4725 50.2441 59.3598 50.2441 57.9922C50.2441 56.6245 51.3568 55.5118 52.7245 55.5118C54.0921 55.5118 55.2048 56.6245 55.2048 57.9922C55.2048 59.3598 54.0921 60.4725 52.7245 60.4725Z" fill="white"/>
</g>
<defs>
<clipPath id="clip0">
<rect width="11.9055" height="11.9055" fill="white" transform="translate(46.7717 53.5276)"/>
</clipPath>
</defs>
</svg>
