<svg width="108" height="108" viewBox="0 0 108 108" fill="none" xmlns="http://www.w3.org/2000/svg">
<path d="M106.725 18.2834C105.851 18.2834 104.833 16.0475 104.833 16.921V78.4211C103.086 77.4768 100.479 76.1386 98.6023 75.5231C97.8179 75.2661 95.734 74.583 94.8079 76.1387C94.1298 77.279 94.0317 79.1182 94.5591 80.8246C95.7102 84.5531 98.2422 84.4213 99.3365 85.3005C100.281 86.0577 100.328 87.7938 100.239 89.5563C100.233 89.6684 100.224 89.8604 100.205 89.9675C99.9924 90.0804 99.4164 90.1619 99.1882 90.1941C98.3708 90.3103 93.9241 91.222 93.1182 91.4173C92.2695 91.6225 92.9131 91.8434 93.1182 92.6929C93.3226 93.5391 93.2616 94.5642 93.9686 94.3937C94.6756 94.2231 98.9154 93.4282 99.6323 93.3268C102.026 92.9882 103.277 92.1304 103.4 89.7162C103.481 88.0905 103.652 84.7072 101.317 82.8326C99.5441 81.4088 98.2505 82.0548 97.5822 79.8919C97.4125 79.3431 97.3705 78.8339 97.3886 78.445C99.0423 78.9385 102.671 80.7595 105.616 82.4833C106.668 83.0996 107.997 82.3399 107.997 81.1188V16.921C107.998 16.0475 107.598 18.2834 106.725 18.2834Z" fill="white"/>
<path d="M92.2677 91.8426C90.1417 93.5434 86.8967 95.5434 86.2342 95.5434H86.2301C85.0213 95.5335 84.2279 93.7323 78.0274 95.7123C77.3336 95.9339 74.5033 96.8774 73.587 96.4275C73.2014 96.238 71.6259 94.2588 71.3227 93.1596C71.1661 92.5927 71.2601 91.9805 71.5419 91.7341C72.3107 91.0609 73.3382 91.4408 75.0784 88.5585C75.3272 88.1473 75.5613 87.7592 75.8175 87.4816C76.6571 86.5719 78.2128 86.3041 79.869 86.089C81.058 85.9349 82.0147 85.8394 82.8592 85.7561C84.845 85.5584 86.2804 85.4167 88.7021 84.7319C90.074 84.3438 90.9886 83.3674 91.277 81.9815C91.572 80.5667 91.1229 78.5735 90.3714 77.958C88.1104 76.109 85.9805 76.8967 84.7074 77.3672C84.4454 77.4644 84.0515 77.6103 83.9156 77.6194C83.8068 77.382 83.7673 77.2329 83.7532 77.1538C84.2583 76.7962 87.8847 74.995 88.4771 71.643C88.8001 69.8122 88.0857 67.3913 86.0406 67.2496C84.3836 67.1359 82.3022 68.5655 81.4321 69.3375C80.4384 70.2208 79.6622 71.2104 78.8226 71.9932C78.1815 71.4403 77.3592 71.1346 76.494 71.1544C74.4934 71.1989 73.9701 72.5857 73.7468 73.1773C73.7452 73.1814 73.7436 73.1847 73.7427 73.1888C73.2582 73.0018 72.0832 72.5848 71.073 73.5934C69.861 74.803 69.8453 75.9574 68.7165 82.3037C68.4792 83.1054 66.0608 85.5155 65.1017 86.0511C64.2859 86.0487 63.0022 86.033 62.4106 86.0594C59.8134 86.1722 58.9433 88.1276 59.6469 89.5563L61.1449 92.5976C61.1309 92.5985 61.1169 92.5985 61.1029 92.5985C60.4783 92.6059 59.8719 92.7319 59.2984 92.9734C59.2943 92.9388 59.2901 92.9058 59.286 92.8753C58.8477 89.5176 56.9056 90.0721 56.426 88.4909C56.3288 88.1721 56.3815 87.6711 56.4367 87.1412C56.5414 86.1418 56.6707 84.8992 55.9225 83.7366C55.4043 82.9307 54.6429 82.4841 54.0875 82.1578L45.5108 77.1233C43.2498 75.7967 40.4985 77.7932 41.0448 80.3541C41.2351 81.2465 41.6545 82.1933 42.2247 83.0197C42.8221 83.8857 43.2621 85.2065 43.7285 86.6048C45.9994 93.4191 47.8542 92.68 48.8108 94.0569C44.8137 95.278 46.1806 97.8711 43.0948 98.5937C42.4826 98.7371 42.0641 98.7569 41.8696 98.6629C41.6669 98.5484 41.2714 98.2147 40.8866 97.8439C42.0929 97.2399 43.0017 96.3286 43.9337 95.7436C44.3926 95.4552 44.6719 94.9526 44.6744 94.4104C44.6884 91.2793 43.862 90.096 42.9062 88.7266C40.4383 85.1925 40.07 81.6774 38.0233 78.8322C36.9727 77.3722 34.9951 76.8275 33.3208 77.5378C31.4858 78.3156 29.4844 78.6081 27.5348 78.384C26.0162 78.2101 23.4751 77.9185 22.3265 80.032C21.9301 80.7612 21.9104 81.4986 21.8065 81.8818C21.0814 82.115 17.3785 81.5802 14.7805 86.0206C14.2301 86.9616 13.7958 88.0229 13.4127 89.361C13.1564 90.2584 12.2665 89.8068 10.3466 89.4558C9.34798 89.2737 8.4037 89.1007 7.49568 88.8395C5.68293 88.3179 3.61062 87.1174 3.23324 85.3104C3.01571 84.268 3.36343 82.9966 3.66995 81.8752L5.5066 75.1532C5.61042 74.7709 6.02488 74.5665 6.38908 74.7173L11.1896 76.7105C12.6793 77.3293 16.1681 78.7779 18.7339 76.736C20.1446 75.6138 21.4802 73.2753 19.8364 68.5078C19.1632 66.5566 18.579 64.5601 19.4219 63.4346C20.0258 62.6283 26.4158 63.1615 28.0629 63.3543C28.9314 63.4565 27.9616 63.3724 28.0629 62.504C28.1643 61.6363 28.9314 60.4793 28.0629 60.378C25.956 60.1308 18.7086 59.1024 17.0711 61.312C17.0481 61.3375 17.0258 61.3639 17.0036 61.3903C14.9214 63.9627 16.1252 67.4531 16.8445 69.5394C17.2236 70.6378 17.9742 73.2976 16.7638 74.26C15.7841 75.0395 13.9186 74.4174 12.4025 73.7887L7.60197 71.7955C5.47858 70.9146 3.06103 72.0987 2.45375 74.3201L0.617107 81.0413C0.236429 82.4347 -0.237359 84.17 0.135904 85.9572C0.701153 88.6615 3.1253 90.8755 6.62144 91.8808C8.38063 92.3867 10.1439 92.5878 11.7787 92.9668C13.8263 93.4406 15.8797 92.24 16.4548 90.232C16.7621 89.1551 17.0983 88.3253 17.512 87.6192C19.7969 83.7135 22.5473 86.2167 24.3436 83.8041C25.0168 82.8994 24.9714 81.8315 25.1033 81.5456C25.3793 81.3223 26.6837 81.4715 27.1739 81.5283C29.6665 81.8142 32.2192 81.4418 34.5568 80.4505C34.8823 80.3129 35.2605 80.4093 35.4557 80.6804C37.1795 83.0766 37.5544 86.5875 40.3123 90.5377C41.025 91.5594 41.4049 92.1033 41.4914 93.5864C40.3156 94.4549 39.4323 95.3052 38.563 95.227C37.4053 95.1256 36.5154 96.2553 36.8689 97.5687C37.2751 99.0749 39.6226 101.087 40.4647 101.497C41.5351 102.02 42.6623 101.945 43.8167 101.675C46.9165 100.949 48.2909 98.354 48.744 97.4987C48.8734 97.4204 49.1 97.3166 49.3431 97.2218C50.1481 97.3668 50.9993 97.062 51.5085 96.3492C52.2394 95.325 52.3028 93.846 51.6667 92.6685C51.0726 91.5693 50.125 90.9307 49.1404 90.2617C48.0288 89.5003 47.3688 87.5203 46.7311 85.6045C46.2153 84.0587 45.683 82.4594 44.8302 81.2234C44.5772 80.8576 44.3671 80.4365 44.2361 80.0443L52.4866 84.8868C53.4078 85.4282 53.4391 85.387 53.2908 86.8133C53.2092 87.5944 53.1161 88.4802 53.3987 89.4097C53.8642 90.9456 55.0912 91.7926 56.0297 92.6298C56.234 93.1481 56.047 94.8001 57.2871 95.7419C57.8968 96.205 59.2753 96.4382 60.5047 95.9001C61.1985 95.5969 62.9873 95.9784 64.1047 94.5719C64.8174 93.6738 64.7894 92.4436 64.1154 91.468L63.0038 89.2119C63.682 89.2045 64.665 89.2169 65.353 89.2169C65.7081 89.2169 66.6524 89.2169 69.1079 86.8298C70.727 85.2552 71.6424 83.9244 71.8295 82.873C72.9369 76.6462 72.9031 76.7336 73.0522 76.3018C73.5507 76.4542 74.2709 76.5696 75.0611 76.212C76.1364 75.7258 76.4965 74.8508 76.6876 74.3465C76.7371 74.3712 76.7824 74.4091 76.817 74.4586C77.5083 75.4597 78.418 75.5437 78.8984 75.5034C79.34 75.4679 79.7677 75.3015 80.1376 75.0222C81.5153 73.9782 82.4547 72.6631 83.5341 71.704C84.1133 71.1898 84.8673 70.7548 85.3773 70.5438C85.3996 70.7161 85.3996 70.9311 85.3435 71.1824C85.1095 72.2379 84.0227 73.361 82.2841 74.3449C81.4667 74.8079 79.7141 76.1947 81.1017 79.0712C81.6027 80.1102 82.6606 80.767 83.8637 80.7843C84.5607 80.7933 85.1944 80.561 85.805 80.336C86.8226 79.9594 87.4018 79.7798 88.0898 80.2066C88.1978 80.5906 88.2719 81.1888 88.1311 81.4929C88.1055 81.5481 88.0709 81.6231 87.841 81.6882C85.6896 82.2963 84.4388 82.4207 82.5469 82.6077C81.6801 82.6942 80.6979 82.7915 79.462 82.9521C77.7563 83.1738 75.1806 83.5075 73.4931 85.3359C73.0185 85.8501 72.674 86.4203 72.37 86.9237C71.0574 89.0982 71.0261 87.9809 69.4572 89.3553C68.2501 90.4116 67.7845 92.2359 68.2723 94.0025C68.7288 95.6538 70.6973 98.5336 72.1912 99.2686C74.1646 100.238 76.9019 99.3946 78.9898 98.7272C84.5212 96.9614 83.5036 98.6868 86.2046 98.7091H86.2359C88.1862 98.7091 91.4173 95.5434 93.9685 94.3937C94.7306 93.9661 93.9709 93.8803 93.5433 93.1182C93.1156 92.3551 93.4329 90.9104 92.2677 91.8426Z" fill="white"/>
<path d="M106.408 6.32791C102.899 6.35016 95.9845 6.38147 94.9364 6.33698C92.1563 6.21997 89.4009 7.24582 87.3756 9.15581L78.0407 17.96C77.4285 18.5376 76.4035 19.5042 76.293 20.9519C76.1596 22.7053 77.3535 23.3694 76.4834 24.3277C74.9211 26.049 71.631 24.2692 72.352 23.47C73.0062 22.7457 73.55 21.9299 73.9694 21.0458C74.9145 19.0559 73.8911 16.6721 71.7892 15.9742C65.48 13.878 62.2005 12.4591 58.6442 13.2057C54.0876 14.1623 51.3957 18.2913 49.1809 22.2834C44.7528 30.2612 43.5852 28.8275 40.5398 30.9871C39.8056 31.5079 34.9944 36.5877 36.2131 39.4807C36.8492 40.9927 38.3052 42.0128 40.0133 42.143C41.4346 42.2526 42.6615 41.8727 43.7261 41.2967C43.6305 43.9706 43.8201 47.2434 45.0898 48.8584C46.161 50.2204 48.0207 50.5797 49.8804 48.9754C52.1323 47.0325 54.5359 41.9254 54.6191 39.6735C54.6908 37.7347 53.6633 36.8159 53.1112 36.3224C53.0725 36.2878 53.0272 36.2474 52.986 36.2087C53.159 34.9183 53.693 34.2657 54.5532 31.2483C55.0995 29.335 55.5708 27.6821 57.0358 26.7659C57.6134 26.4042 58.3311 26.4346 58.781 26.8392C58.9343 26.9785 59.343 27.3468 58.7868 28.5613C58.1803 29.8863 56.9988 31.1091 56.2794 32.7958C55.3673 34.934 55.6071 37.8921 57.8475 39.1626C61.2991 41.1196 64.1946 37.1917 66.3995 37.5155C66.0081 39.4115 65.494 41.4179 64.3635 42.901C63.0122 44.6734 60.9695 45.1324 59.7739 44.5515C59.4822 44.4097 59.1526 44.3611 58.8321 44.413C57.4091 44.6413 55.8971 45.9646 55.7274 48.4052C55.6458 49.5678 55.865 50.7132 55.6812 51.4968C55.1654 53.6951 51.4493 54.1714 49.2797 54.2596L42.9952 54.5158C42.9697 53.1406 43.9848 50.0746 42.2075 48.3895C40.553 46.8199 36.5015 47.1626 35.5852 49.4871C35.2573 50.3201 35.3149 51.2314 35.371 52.1131C35.4806 53.8484 35.4888 53.7108 34.2776 54.5026C30.2532 57.1336 30.7246 58.7857 29.6946 59.7225C29.4581 59.9376 28.3745 60.2692 28.063 60.378C27.2382 60.6647 26.4999 61.2531 26.7874 62.0787C27.075 62.9019 28.063 63.7795 29.7638 63.3543C31.0394 62.9291 31.1637 62.6633 31.8237 62.0635C33.6538 60.399 32.6296 59.3608 36.0096 57.1509C39.7199 54.7259 38.2516 52.7723 38.5054 50.7585C38.8375 50.5838 39.6293 50.5368 39.982 50.6736C40.3527 51.4004 39.7941 53.1076 39.8328 54.6196C39.8847 56.6186 40.9229 57.7681 43.1073 57.6783L49.4091 57.4212C56.1946 57.1451 58.2397 54.44 58.7612 52.2202C59.0884 50.8302 58.8115 49.6601 58.8832 48.6252C58.9129 48.2042 59.048 47.8853 59.1675 47.704C61.9616 48.5692 65.0993 47.1552 66.8799 44.8192C68.6391 42.5113 69.22 39.5771 69.6864 37.2189C69.9138 36.0678 68.5551 34.2534 65.9875 34.344C62.9009 34.4544 60.6688 37.1249 59.4081 36.4105C58.8898 36.1164 58.786 34.9851 59.1905 34.0367C59.7443 32.7389 60.9193 31.5038 61.6641 29.878C62.6323 27.7637 62.353 25.7993 60.8995 24.4892C59.4064 23.1437 57.1281 22.9772 55.3582 24.083C52.8616 25.6444 52.1439 28.1609 51.5111 30.3807C50.6615 33.3585 49.9694 34.269 49.812 36.1362C49.6275 38.3205 51.4962 38.4853 51.4567 39.5565C51.399 41.1303 49.0243 45.9209 47.5041 46.8133C46.9709 46.0099 46.5697 42.7041 47.1588 38.1261C47.345 36.68 45.6295 35.7728 44.5394 36.7418C42.9763 38.1294 41.7552 39.1017 40.2547 38.988C39.7809 38.9517 39.3673 38.7029 39.172 38.3428C39.2519 37.2955 41.5665 34.1767 42.3707 33.567C45.0305 31.6809 47.0204 32.6952 51.947 23.8185C53.646 20.7574 55.8625 17.0223 59.2935 16.3022C61.9105 15.7534 64.7013 16.9531 70.7913 18.976C71.0847 19.0732 71.2437 19.4094 71.111 19.6887C70.2747 21.4504 68.8212 22.0115 69.0981 24.2313C69.5265 27.6599 75.5918 30.0181 78.826 26.4536C81.0276 24.0278 79.4102 21.691 79.4481 21.1933C79.4654 20.9659 80.0273 20.4361 80.2119 20.2614L89.5468 11.4564C90.9541 10.1289 92.8674 9.41536 94.8004 9.49776C95.8659 9.5439 101.899 9.51671 104.836 9.50105V17.0438C104.836 17.918 105.543 18.6258 106.418 18.6258C107.291 18.6258 108 17.918 108 17.0446V7.90995C108 7.06537 107.341 6.34521 106.408 6.32791Z" fill="white"/>
<g clip-path="url(#clip0)">
<path d="M52.7246 59.5276C50.2631 59.5276 48.26 61.5445 48.26 64.0244C48.26 67.5479 52.3049 71.186 52.477 71.3388C52.548 71.4018 52.6363 71.4331 52.7246 71.4331C52.8129 71.4331 52.9012 71.4018 52.9721 71.3393C53.1442 71.186 57.1891 67.5479 57.1891 64.0244C57.1891 61.5445 55.186 59.5276 52.7246 59.5276ZM52.7246 66.4724C51.3569 66.4724 50.2443 65.3598 50.2443 63.9921C50.2443 62.6245 51.3569 61.5118 52.7246 61.5118C54.0922 61.5118 55.2049 62.6245 55.2049 63.9921C55.2049 65.3598 54.0922 66.4724 52.7246 66.4724Z" fill="white"/>
</g>
<defs>
<clipPath id="clip0">
<rect width="11.9055" height="11.9055" fill="white" transform="translate(46.7717 59.5276)"/>
</clipPath>
</defs>
</svg>
