<svg width="132" height="132" viewBox="0 0 132 132" fill="none" xmlns="http://www.w3.org/2000/svg">
<path d="M131.196 56.6105C131.088 56.0232 130.781 55.4911 130.325 55.1054C126.055 51.4937 125.334 47.5112 124.755 44.3115L124.679 43.8946C124.479 42.8026 123.602 41.9611 122.503 41.8064C122.123 41.753 121.722 41.7257 121.309 41.7257C118.855 41.7257 115.399 42.7595 113.207 45.0687C112.833 45.4629 112.593 45.9651 112.521 46.5037C112.337 47.8892 112.242 49.1571 112.159 50.2758C111.843 54.4913 111.564 54.9383 110.28 55.3446C109.475 55.5993 108.846 56.2318 108.595 57.0377C107.386 60.9312 105.781 64.6571 103.839 68.1724C102.879 66.3409 101.819 64.6934 100.833 63.1605C98.4194 59.4114 96.5131 56.4496 97.1644 52.7791C99.2748 40.8826 98.2036 31.9211 93.9796 26.143C91.6273 22.9252 88.2763 20.7315 84.2039 19.7067C85.0144 13.382 89.4096 10.5146 91.8426 9.8626C93.218 9.49419 94.0342 8.08034 93.6656 6.70491C93.2969 5.32974 91.8831 4.51273 90.5082 4.88192C85.4847 6.22796 80.1188 11.1695 79.094 19.0621C74.9793 19.0505 71.2423 20.3071 68.1672 22.7641C62.5479 27.2539 59.1527 35.5972 58.0759 47.5618C57.7518 51.1621 55.4227 53.2628 52.1988 56.1696C49.5673 58.5425 46.636 61.1918 44.2878 65.1969C41.3629 64.0058 38.2253 63.2332 34.9491 62.9534C35.8777 56.8814 40.1484 54.1089 42.5342 53.4698C43.9096 53.1014 44.7258 51.6876 44.3571 50.3124C43.9885 48.9369 42.5746 48.1202 41.1997 48.4894C39.9042 48.8364 38.5865 49.4255 37.3256 50.2397C36.739 47.3447 35.32 44.6294 33.1714 42.4811C30.2927 39.6023 26.465 38.017 22.3936 38.017C21.061 38.017 19.7337 38.1911 18.4485 38.5339C17.5573 38.7719 16.8609 39.4683 16.623 40.3595C15.2223 45.605 16.7346 51.2464 20.5698 55.0824C23.2384 57.751 26.7238 59.3057 30.4621 59.5189C30.1362 60.5857 29.8939 61.7211 29.7531 62.9251C13.1373 64.1734 0 78.0912 0 95.0202C0 112.768 14.4388 127.207 32.1861 127.207C38.782 127.207 45.0648 125.246 50.4436 121.527C51.2908 121.899 52.1408 122.257 52.9946 122.594C60.7538 125.654 68.5954 127.206 76.3011 127.206C88.6957 127.206 100.199 123.157 109.568 115.495C119.361 107.486 126.578 95.6364 130.439 81.2262C131.699 76.5263 132.81 65.4522 131.196 56.6105ZM55.6522 59.9992C59.12 56.8719 62.7059 53.6382 63.2115 48.0243C64.1574 37.5146 66.9075 30.3711 71.3859 26.7929C74.0445 24.6688 77.3306 23.8497 81.1539 24.3607C84.9299 24.8647 87.8447 26.4882 89.8172 29.1864C93.1791 33.7853 93.943 41.4202 92.0873 51.8786C91.0826 57.5404 93.835 61.8162 96.4966 65.9516C97.9883 68.269 99.5238 70.6587 100.568 73.44C91.8789 85.9877 78.6942 95.1383 64.1863 98.4891C64.31 97.3387 64.3729 96.1798 64.3729 95.0202C64.3729 83.3905 58.1723 73.1819 48.9039 67.5252C50.8329 64.3505 53.2754 62.1426 55.6522 59.9992ZM24.2153 51.4362C22.0494 49.27 21.0032 46.2327 21.3193 43.2297C21.6756 43.1921 22.0337 43.1728 22.3931 43.1728C25.087 43.1728 27.62 44.2218 29.5247 46.1265C31.6908 48.2927 32.7373 51.3302 32.4209 54.333C32.0649 54.3706 31.7065 54.3897 31.3479 54.3897H31.3474C28.6528 54.3899 26.12 53.3409 24.2153 51.4362ZM32.1861 122.05C17.2817 122.05 5.15625 109.925 5.15625 95.0202C5.15625 80.1155 17.2817 67.9901 32.1861 67.9901C47.0907 67.9901 59.2164 80.1155 59.2164 95.0202C59.2164 96.5062 59.095 97.9897 58.855 99.4492C57.1965 99.6631 55.5266 99.799 53.849 99.8562C54.2022 98.2751 54.3868 96.6594 54.3868 95.0202C54.3868 92.1167 53.8281 89.2823 52.7265 86.5962C52.1864 85.2793 50.681 84.6487 49.3628 85.1893C48.0457 85.7297 47.4156 87.2355 47.956 88.553C48.8018 90.6152 49.2306 92.7909 49.2306 95.0202C49.2306 96.6413 49.0009 98.2338 48.5518 99.7758C44.8619 99.5384 41.1667 98.9286 37.5259 97.9531C36.7844 97.7543 35.9924 97.8966 35.3662 98.3411C33.0748 99.9679 30.7653 102.014 29.3958 105.938C29.0428 106.949 29.3517 108.073 30.1718 108.762C34.9078 112.74 39.856 116.112 44.953 118.85C41.0515 120.952 36.7073 122.05 32.1861 122.05ZM125.458 79.892C118.385 106.29 100.009 122.05 76.3014 122.05C62.4615 122.05 47.8526 116.376 34.9761 106.035C35.6586 104.81 36.5024 103.967 37.4091 103.247C42.2503 104.441 47.1735 105.046 52.0624 105.046C65.8989 105.046 79.2405 100.331 90.6445 91.4106C96.4425 86.8754 101.467 81.4105 105.493 75.3509C105.541 75.2859 105.586 75.2189 105.627 75.1498C108.805 70.329 111.35 65.1348 113.145 59.7336C116.758 57.9155 117.034 54.2329 117.301 50.6607C117.362 49.8442 117.425 49.0068 117.52 48.1233C118.206 47.6267 119.115 47.2336 120.026 47.0315C120.713 50.3095 122.049 54.5173 126.271 58.4028C127.465 65.9985 126.598 75.6389 125.458 79.892Z" fill="white"/>
<path d="M83.145 29.6661C81.8328 29.1165 80.3212 29.7339 79.7705 31.047C79.2198 32.36 79.8378 33.8708 81.1511 34.4215C83.0267 35.2078 84.0623 40.867 82.4128 50.162C82.164 51.5639 83.0989 52.9023 84.5011 53.151C84.6535 53.1781 84.8051 53.1913 84.9546 53.1913C86.181 53.1913 87.2685 52.3126 87.4902 51.0633C88.9654 42.7514 89.4089 32.2922 83.145 29.6661Z" fill="white"/>
<path d="M100.186 103.458C99.3323 102.319 97.7135 102.09 96.5745 102.945C96.5734 102.945 96.5624 102.953 96.5616 102.954C95.4133 103.795 95.1686 105.403 96.0083 106.552C96.5123 107.242 97.2966 107.606 98.0914 107.606C98.621 107.606 99.1554 107.444 99.6148 107.109L99.6739 107.065C100.813 106.211 101.041 104.597 100.186 103.458Z" fill="white"/>
<path d="M94.2698 107.627C93.6209 106.359 92.0679 105.857 90.8002 106.506C81.9761 111.02 74.5312 110.841 74.4214 110.836C73.0042 110.787 71.8069 111.891 71.7512 113.312C71.6956 114.734 72.8036 115.933 74.2265 115.989C74.2659 115.99 74.4046 115.995 74.6349 115.995C76.4775 115.995 84.1569 115.696 93.1484 111.096C94.416 110.448 94.918 108.894 94.2698 107.627Z" fill="white"/>
<path d="M47.9639 79.4018L47.8791 79.3167C46.8697 78.3131 45.2375 78.3169 44.2331 79.3265C43.2289 80.3361 43.2333 81.9686 44.2429 82.9728L44.2983 83.0282C44.8026 83.5382 45.4667 83.7931 46.1311 83.7931C46.7862 83.7931 47.4418 83.5449 47.9443 83.0478C48.9565 82.0467 48.9653 80.414 47.9639 79.4018Z" fill="white"/>
<path d="M29.802 4.60319L31.8527 10.2958C31.9404 10.5395 32.1144 10.7327 32.3337 10.8301L37.4571 13.1089C38.181 13.4307 38.181 14.5693 37.4571 14.8912L32.3337 17.1699C32.1144 17.2673 31.9404 17.4605 31.8527 17.7043L29.802 23.3968C29.5122 24.2011 28.4876 24.2011 28.198 23.3968L26.1473 17.7043C26.0596 17.4605 25.8856 17.2673 25.6663 17.1699L20.5429 14.8912C19.819 14.5693 19.819 13.4307 20.5429 13.1089L25.6663 10.8301C25.8856 10.7324 26.0596 10.5393 26.1473 10.2958L28.198 4.60296C28.4876 3.79898 29.5122 3.79898 29.802 4.60319Z" fill="white"/>
<path d="M8.62376 26.4221L10.2189 30.407C10.2871 30.5775 10.4223 30.7127 10.593 30.7811L14.5777 32.3762C15.1408 32.6016 15.1408 33.3984 14.5777 33.6238L10.593 35.2189C10.4223 35.2871 10.2871 35.4225 10.2189 35.593L8.62376 39.5779C8.39835 40.1407 7.60165 40.1407 7.37624 39.5779L5.7811 35.593C5.71288 35.4225 5.57768 35.2873 5.407 35.2189L1.42228 33.6238C0.859242 33.3984 0.859242 32.6016 1.42228 32.3762L5.407 30.7811C5.57768 30.7127 5.71288 30.5777 5.7811 30.407L7.37624 26.4221C7.6014 25.8593 8.39835 25.8593 8.62376 26.4221Z" fill="white"/>
<path d="M14 7C14 8.65668 12.6569 10 11 10C9.34305 10 8 8.65695 8 7C8 5.34305 9.34305 4 11 4C12.6569 4 14 5.34332 14 7Z" fill="white"/>
</svg>
