<svg width="135" height="99" viewBox="0 0 135 99" fill="none" xmlns="http://www.w3.org/2000/svg">
<path d="M96.7939 62.3437H88.5907V52.4999C88.5923 48.6693 87.8028 44.8796 86.2716 41.3684C84.7403 37.8571 82.5004 34.6999 79.6922 32.0947C81.907 26.1679 87.946 20.9938 88.0097 20.9384C88.2658 20.7212 88.449 20.4306 88.5346 20.106C88.6203 19.7813 88.6043 19.4382 88.4887 19.1229C88.3732 18.8077 88.1637 18.5354 87.8886 18.343C87.6134 18.1506 87.2859 18.0472 86.9501 18.0468C82.2066 18.0468 78.0829 18.9781 74.6249 20.8203C75.2775 19.7254 76.001 18.6745 76.7909 17.6742C78.192 15.8925 79.75 14.2401 81.4462 12.7367C81.7027 12.5197 81.8864 12.2291 81.9724 11.9043C82.0584 11.5795 82.0426 11.2361 81.9272 10.9205C81.8117 10.605 81.6021 10.3325 81.3268 10.1399C81.0514 9.94733 80.7236 9.84393 80.3876 9.84369C75.9528 9.84369 72.0409 10.6695 68.71 12.2962C68.2501 8.86588 66.6943 2.80336 61.4339 0.173235C61.206 0.0593107 60.9548 0 60.7001 0C60.4454 0 60.1942 0.0593107 59.9663 0.173235C54.7118 2.80049 53.1532 8.85255 52.6916 12.2851C49.3716 10.6626 45.4661 9.84369 41.0126 9.84369C40.6768 9.8439 40.3491 9.94716 40.0738 10.1395C39.7985 10.3319 39.5889 10.6041 39.4733 10.9194C39.3577 11.2347 39.3416 11.5779 39.4272 11.9026C39.5128 12.2274 39.6961 12.518 39.9521 12.7353C41.6488 14.2388 43.2073 15.8914 44.6086 17.6734C45.3967 18.6711 46.1188 19.7192 46.7704 20.8111C43.3191 18.9752 39.1991 18.0468 34.4501 18.0468C34.1143 18.047 33.7866 18.1503 33.5113 18.3427C33.236 18.535 33.0264 18.8073 32.9108 19.1226C32.7952 19.4379 32.7791 19.781 32.8647 20.1058C32.9503 20.4305 33.1336 20.7211 33.3896 20.9384C33.4542 20.9932 39.4928 26.1679 41.708 32.0947C38.8998 34.6999 36.6599 37.8571 35.1286 41.3684C33.5974 44.8796 32.8079 48.6693 32.8095 52.4999V52.6882C30.9993 53.0321 28.6037 53.8161 27.3245 54.7765C27.1427 54.9122 26.9515 55.0348 26.7525 55.1436C27.1846 51.1924 27.9495 47.1616 29.2526 45.207C29.3754 45.0278 29.4614 44.826 29.5056 44.6133C29.5499 44.4006 29.5514 44.1813 29.5102 43.968C29.4689 43.7547 29.3858 43.5517 29.2655 43.3708C29.1452 43.1899 28.9901 43.0348 28.8094 42.9143C28.6286 42.7938 28.4257 42.7104 28.2125 42.6689C27.9993 42.6274 27.7799 42.6287 27.5672 42.6727C27.3544 42.7167 27.1525 42.8025 26.9732 42.9251C26.7939 43.0478 26.6407 43.2048 26.5226 43.3871C25.0352 45.6183 23.9901 49.7076 23.4134 55.5361C22.8626 55.3792 22.3456 55.122 21.8882 54.7773C20.1578 53.4776 16.3827 52.4999 14.7806 52.4999C10.4912 52.4999 6.621 54.2488 3.883 57.4245C0.762329 61.0441 -0.570679 66.1887 0.225639 71.539L1.25103 78.4249C1.88801 82.7921 3.31351 87.0071 5.458 90.8645C8.13653 95.6633 12.7844 98.4438 17.7012 98.4436C18.9111 98.4425 20.1151 98.2758 21.2798 97.9481C21.3171 97.9377 21.3539 97.926 21.3901 97.9128L24.1345 96.9311C24.4399 96.8206 24.7744 96.8206 25.0799 96.9311L27.824 97.9128C27.8603 97.926 27.8972 97.9377 27.9344 97.9481C29.0991 98.2758 30.3032 98.4425 31.5132 98.4436C35.109 98.4436 38.5605 96.9545 41.2037 94.2778C46.7653 96.9946 52.8699 98.4167 59.0595 98.4374C69.2724 98.4374 79.1399 94.5707 86.8476 87.5496C94.2109 80.8405 98.4345 72.2514 98.4345 63.9843C98.4345 63.5492 98.2616 63.1319 97.9539 62.8242C97.6463 62.5165 97.229 62.3437 96.7939 62.3437ZM53.7736 54.1201L60.7216 47.373L67.6836 54.1317L60.7387 60.8671L53.7736 54.1201ZM57.547 62.3437H48.1668C47.9274 61.6737 47.6445 61.0201 47.3198 60.387L51.4179 56.4073L57.547 62.3437ZM70.0385 56.4182L76.1425 62.3437H63.928L70.0385 56.4182ZM63.0759 45.086L70.018 38.3442L76.9858 45.1118L70.0398 51.8472L63.0759 45.086ZM64.2244 28.144C67.2386 28.5782 70.1452 29.572 72.7942 31.0744L70.018 33.7704L64.2244 28.144ZM67.6631 36.0574L60.7206 42.7997L53.7818 36.0635L60.7255 29.3204L67.6631 36.0574ZM51.4271 33.7763L48.6298 31.0607C51.2903 29.5561 54.2095 28.5643 57.2359 28.1367L51.4271 33.7763ZM51.4271 38.3496L58.3663 45.0864L51.4156 51.8363L44.4684 45.1077L51.4271 38.3496ZM49.0603 54.1231L45.4782 57.6023C45.4288 57.543 45.3801 57.4829 45.3297 57.4245C43.1189 54.8441 40.0466 53.1539 36.6836 52.6677L42.1133 47.3947L49.0603 54.1231ZM47.9619 78.4249L48.9873 71.539C49.2852 69.5791 49.2876 67.5855 48.9942 65.6249H88.2991C87.3531 71.0425 84.1498 76.4697 79.3177 80.7492C73.6061 85.8079 66.4115 88.5937 59.0595 88.5937C54.5885 88.5753 50.1779 87.5602 46.1488 85.6221C46.9922 83.2896 47.5997 80.8785 47.9621 78.4249H47.9619ZM82.5321 62.3437L85.3095 59.6539V62.3437H82.5321ZM85.3095 55.0862L79.3364 60.8708L72.3959 54.133L79.3417 47.3978L85.3095 53.1937V55.0862ZM84.9436 48.2643L81.6981 45.1126L83.5362 43.3301C84.1775 44.9207 84.6493 46.5746 84.9436 48.2643ZM82.0239 40.2252L79.3429 42.825L72.3736 36.0574L75.5978 32.9263C78.2007 34.9114 80.3847 37.3923 82.0239 40.2258V40.2252ZM82.6353 21.6418C80.751 23.7189 78.4789 26.64 77.0413 29.9118C75.5747 28.8475 74.0079 27.9284 72.3631 27.1677C72.3836 26.9121 72.4148 26.6566 72.455 26.4011C75.098 23.871 78.5097 22.277 82.6353 21.6425V21.6418ZM76.0709 13.4387C73.4069 16.3756 69.9688 20.9993 69.2078 25.9364C67.2772 25.3166 65.2843 24.9108 63.265 24.7264C63.0726 24.129 62.8264 23.4531 62.5136 22.7269C64.5281 18.8688 68.452 14.6157 76.0709 13.4404V13.4387ZM60.7001 3.52872C64.7658 6.17731 65.4735 12.2513 65.5963 14.1723C63.666 15.5892 62.0066 17.3423 60.6976 19.3474C59.9449 18.1966 59.0771 17.1252 58.1077 16.1498C57.3914 15.4315 56.6214 14.7689 55.8043 14.1678C55.9277 12.2421 56.6375 6.17526 60.7001 3.52872ZM45.3315 13.4428C54.4214 14.8538 58.2068 20.6542 59.751 24.6272C57.1829 24.712 54.6391 25.1532 52.1924 25.938C52.1412 25.605 52.078 25.2736 52.0029 24.944L52.0608 24.8905C52.0308 24.8581 51.9992 24.8269 51.9697 24.7949C50.9037 20.2947 47.7884 16.1519 45.3315 13.4428ZM38.7641 21.6416C42.8944 22.2755 46.3032 23.8717 48.9458 26.405C48.9856 26.6593 49.017 26.914 49.0371 27.1683C47.3923 27.929 45.8255 28.8481 44.3589 29.9124C42.9211 26.6396 40.6486 23.7187 38.7641 21.6416ZM45.8237 32.9101L49.0722 36.0635L42.1106 42.8239L39.3954 40.194C41.0369 37.3659 43.2216 34.8904 45.8237 32.9101ZM37.879 43.2936L39.7553 45.111L36.4467 48.3237C36.7426 46.6005 37.2228 44.9141 37.879 43.2936ZM40.8896 89.2653C38.8099 92.9926 35.2362 95.1562 31.4834 95.1562C30.6011 95.1556 29.7227 95.0367 28.872 94.8026L26.1855 93.8416C25.1649 93.4774 24.0498 93.4774 23.0293 93.8416L20.3407 94.8032C15.706 96.0729 10.8829 93.8529 8.32315 89.2661C6.37198 85.7547 5.07538 81.9178 4.4966 77.9425L3.47121 71.0568C2.81496 66.6514 3.87152 62.4641 6.36834 59.568C7.40927 58.3611 8.70173 57.3968 10.155 56.7426C11.6082 56.0885 13.1871 55.7603 14.7806 55.7812C15.8229 55.7812 18.8699 56.6136 19.9185 57.4013C20.8717 58.1201 21.9764 58.612 23.1485 58.8395C23.0677 60.1455 23.0225 61.2933 22.9973 62.1722C21.5794 61.854 20.8645 61.2024 20.8257 61.1659L20.8438 61.1838C20.6917 61.03 20.5107 60.9078 20.3112 60.8243C20.1117 60.7408 19.8976 60.6975 19.6813 60.697C19.4651 60.6965 19.2508 60.7387 19.0509 60.8213C18.851 60.9039 18.6694 61.0253 18.5166 61.1783C18.3638 61.3313 18.2427 61.5131 18.1604 61.7131C18.078 61.9131 18.0361 62.1274 18.0369 62.3437C18.0377 62.5599 18.0812 62.7739 18.165 62.9733C18.2488 63.1727 18.3712 63.3535 18.5252 63.5055C18.7452 63.7245 20.7599 65.6249 24.6064 65.6249C28.4561 65.6249 30.4716 63.7208 30.6884 63.5038C30.8407 63.3515 30.9616 63.1706 31.044 62.9715C31.1265 62.7725 31.1689 62.5591 31.1689 62.3437C31.1689 62.1282 31.1265 61.9149 31.044 61.7158C30.9616 61.5168 30.8407 61.3359 30.6884 61.1836C30.536 61.0312 30.3551 60.9104 30.1561 60.8279C29.957 60.7455 29.7437 60.703 29.5282 60.703C29.3128 60.703 29.0994 60.7455 28.9004 60.8279C28.7013 60.9104 28.5205 61.0312 28.3681 61.1836C28.3595 61.1922 27.6587 61.8291 26.2763 62.1554C26.3048 61.1643 26.3567 60.0037 26.4389 58.7577C27.4726 58.5031 28.4439 58.0415 29.294 57.4007C30.3426 56.6136 33.3896 55.7806 34.4319 55.7806C36.0254 55.7595 37.6042 56.0876 39.0575 56.7416C40.5108 57.3956 41.8033 58.3598 42.8444 59.5665C45.3412 62.4624 46.3971 66.6499 45.7415 71.0554L44.7161 77.9411C44.1373 81.9165 42.8407 85.7536 40.8896 89.2653ZM84.6368 85.124C77.5356 91.5934 68.4521 95.1562 59.0595 95.1562C53.6119 95.1372 48.2332 93.9365 43.2947 91.6368C43.4536 91.3852 43.6081 91.1284 43.7553 90.8645C44.159 90.1413 44.537 89.4049 44.8892 88.6554C49.3186 90.7571 54.1568 91.8563 59.0595 91.8749C67.2138 91.8749 75.1809 88.7961 81.4934 83.2055C87.0407 78.2924 90.6708 71.9592 91.6216 65.6249H95.0903C94.5686 72.4649 90.824 79.4882 84.6368 85.124Z" fill="white"/>
<path d="M108.419 68.3639C108.683 68.7921 109.123 69.0245 109.571 69.0245C109.83 69.0245 110.093 68.9465 110.326 68.7836L111.176 68.1892L112.027 68.7836C112.26 68.9465 112.522 69.0245 112.782 69.0245C113.23 69.0245 113.669 68.7921 113.934 68.3639C114.322 67.7354 114.196 66.9068 113.666 66.4362C114.196 65.9655 114.322 65.1371 113.934 64.5085C113.516 63.8324 112.662 63.6444 112.027 64.0887L111.176 64.6832L110.326 64.0887C109.69 63.6442 108.837 63.8324 108.419 64.5085C108.031 65.137 108.157 65.9655 108.687 66.4362C108.157 66.9067 108.031 67.7353 108.419 68.3639Z" fill="white"/>
<path d="M99.6098 85.2983L98.594 85.3608L98.137 84.3937C97.7954 83.6708 96.9675 83.3795 96.2882 83.7428C95.6566 84.0806 95.3762 84.8651 95.614 85.5546C94.9338 85.6802 94.4354 86.3308 94.4762 87.0815C94.5185 87.8605 95.1256 88.4619 95.8496 88.4619C95.8764 88.4619 95.9033 88.4611 95.9304 88.4595L96.9462 88.397L97.4032 89.3641C97.6452 89.8758 98.1306 90.1713 98.6347 90.1713C98.8426 90.1713 99.0537 90.1211 99.2522 90.0149C99.8838 89.6771 100.164 88.8925 99.9264 88.2031C100.607 88.0775 101.105 87.4269 101.064 86.6761C101.02 85.8686 100.37 85.2522 99.6098 85.2983Z" fill="white"/>
<path d="M129.817 71.9025C133.554 67.6925 135.411 62.0083 134.923 56.2132C134.864 55.5073 134.338 54.948 133.675 54.8848C130.084 54.5427 126.443 55.3072 123.26 57.0477C121.577 51.8585 116.94 48.1205 111.498 48.1205C104.638 48.1205 99.0581 54.057 99.0581 61.354C99.0581 64.4159 100.041 67.238 101.688 69.4827C96.9703 68.9826 93.0206 74.3555 90.5 79C87.0706 85.3193 88.2772 90.4605 94.2174 94.1089C96.1716 95.3092 98.307 95.8793 100.416 95.8793C104.718 95.8793 108.909 93.5056 111.21 89.2652C111.311 89.0795 111.406 88.8923 111.498 88.7037C111.589 88.8922 111.685 89.0795 111.785 89.2652C114.087 93.5059 118.276 95.8793 122.579 95.8793C124.688 95.8793 126.824 95.309 128.778 94.1089C134.718 90.4605 136.761 82.3509 133.331 76.0316C132.419 74.3517 131.211 72.9649 129.817 71.9025ZM132.243 57.7368C132.318 62.4146 130.62 66.9178 127.487 70.2506C127.431 70.3103 127.373 70.3686 127.316 70.4276C125.428 69.5986 123.361 69.2649 121.307 69.4826C122.954 67.2379 123.937 64.4158 123.937 61.3538C123.937 60.9056 123.916 60.4627 123.875 60.026C126.401 58.483 129.316 57.6885 132.243 57.7368ZM111.498 51.0503C116.838 51.0503 121.183 55.6725 121.183 61.3539C121.183 67.0353 116.838 71.6575 111.498 71.6575C106.157 71.6575 101.812 67.0353 101.812 61.3539C101.812 55.6725 106.157 51.0503 111.498 51.0503ZM112.742 74.5214C112.264 75.1757 111.848 75.8726 111.498 76.6016C111.147 75.8726 110.731 75.1758 110.253 74.5214C110.663 74.5648 111.078 74.5874 111.498 74.5874C111.918 74.5874 112.332 74.5648 112.742 74.5214ZM108.825 87.8002C106.155 92.7203 100.219 94.4124 95.5943 91.5716C90.9693 88.7308 89.379 82.4169 92.0492 77.4966C93.8412 74.1947 97.1033 72.3469 100.453 72.3469C102.095 72.3469 103.758 72.791 105.28 73.7253C109.905 76.566 111.495 82.88 108.825 87.8002ZM127.401 91.5716C125.879 92.5062 124.217 92.9501 122.575 92.9499C119.225 92.9497 115.962 91.1017 114.17 87.8002C111.5 82.88 113.091 76.5659 117.716 73.7252C122.341 70.8846 128.276 72.5763 130.946 77.4966C133.616 82.4169 132.026 88.7308 127.401 91.5716Z" fill="white"/>
<path d="M127.381 85.5547C127.619 84.8652 127.339 84.0807 126.707 83.7429C126.028 83.3796 125.2 83.671 124.858 84.3938L124.401 85.3609L123.385 85.2984C122.626 85.2521 121.975 85.8687 121.931 86.6763C121.89 87.4271 122.389 88.0777 123.069 88.2033C122.831 88.8927 123.112 89.6773 123.743 90.0151C123.942 90.1212 124.153 90.1715 124.361 90.1715C124.865 90.1715 125.35 89.876 125.592 89.3643L126.049 88.3972L127.065 88.4597C127.092 88.4613 127.119 88.4621 127.146 88.4621C127.87 88.4621 128.477 87.8606 128.519 87.0817C128.56 86.3309 128.061 85.6803 127.381 85.5547Z" fill="white"/>
<path d="M59.8553 82.319C60.1617 82.6254 60.569 82.7941 61.0022 82.7941C61.4355 82.7941 61.8429 82.6254 62.1493 82.319C62.4557 82.0126 62.6244 81.6053 62.6245 81.172C62.6246 81.1719 62.6245 81.1718 62.6246 81.1717C62.6245 80.8455 62.3218 78.6835 61.0023 78.6836C60.6061 78.6837 60.0522 78.892 59.664 79.8843C59.4942 80.3184 59.3802 80.8359 59.3802 81.1719C59.3801 81.605 59.5488 82.0125 59.8553 82.319Z" fill="white"/>
<path d="M52.7768 76.8971C51.7174 76.1102 50.1855 77.6649 49.9907 77.9269C49.5053 78.5802 49.5856 79.4818 50.1449 80.0411C50.6217 80.518 51.3633 80.6484 51.9749 80.3661C52.6388 80.0597 52.9532 79.3261 53.1349 78.6593C53.4151 77.6313 53.0945 77.1341 52.7768 76.8971Z" fill="white"/>
<path d="M69.412 76.8978C68.3527 77.685 69.3996 79.6006 69.5941 79.8624C70.1225 80.5724 71.154 80.7243 71.8638 80.1969C72.574 79.6692 72.7253 78.6364 72.1982 77.9274C72.0031 77.6655 70.4714 76.1107 69.412 76.8978Z" fill="white"/>
<path d="M76.1095 73.5678C76.4194 73.8685 76.7858 74.1596 77.1869 74.3279C78.0013 74.6698 78.9681 74.2762 79.3104 73.4599C79.6522 72.6454 79.2588 71.6791 78.4425 71.3364C78.1325 71.2062 77.6112 71.1111 77.1452 71.0998C76.0799 71.0737 75.6735 71.5038 75.5201 71.8693C75.3669 72.2347 75.3447 72.8259 76.1095 73.5678Z" fill="white"/>
</svg>
