<svg width="130" height="110" viewBox="0 0 130 110" fill="none" xmlns="http://www.w3.org/2000/svg">
<path d="M0.787285 25.4153C1.18287 26.3801 2.17082 27.0192 3.21361 26.9829C4.26478 26.9463 5.19053 26.2501 5.53457 25.2606C5.87734 24.2755 5.54371 23.1431 4.74162 22.4832C3.90043 21.791 2.67203 21.7202 1.75644 22.3108C0.73955 22.9661 0.32162 24.2976 0.787285 25.4153Z" fill="white"/>
<path d="M105.387 44.8746C105.636 44.2333 105.865 43.5934 106.074 42.9579C107.475 38.6821 108.048 34.3353 107.824 29.669C107.454 21.9393 103.877 14.508 97.7518 8.74385C91.8711 3.20972 84.3989 0.0356445 77.2512 0.0356445C66.6024 0.0356445 58.2801 5.98034 54.2669 9.5241C53.9683 9.78791 53.5331 9.7935 53.2325 9.53654C49.073 5.98821 40.5669 0.0356445 30.3335 0.0356445C21.8774 0.0356445 12.8757 4.59808 6.84108 11.9423C5.95089 13.0257 6.1073 14.6258 7.19071 15.516C8.27438 16.4065 9.87424 16.2498 10.7644 15.1664C15.8593 8.96602 23.3579 5.11401 30.3335 5.11401C38.9383 5.11401 46.309 10.3056 49.9365 13.4002C52.144 15.2832 55.4506 15.2535 57.6281 13.3309C61.1033 10.2622 68.2741 5.11401 77.2509 5.11401C88.7277 5.11401 102.072 15.7191 102.752 29.912C102.945 33.9488 102.453 37.699 101.247 41.3766C100.962 42.2475 100.64 43.1062 100.275 43.974C99.2547 43.8773 98.2215 43.8278 97.1769 43.8278C79.0785 43.8278 64.3543 58.6622 64.3543 76.8962C64.3543 77.7585 64.3873 78.6131 64.452 79.4591C61.9404 81.5074 59.8993 83.1844 58.1935 84.6282C55.6176 86.8087 51.8791 86.8082 49.3038 84.6266C46.9998 82.6746 44.0043 80.2338 40.833 77.6496C29.3861 68.3218 13.709 55.5471 9.93518 49.1354C7.45401 44.9201 5.97146 41.1021 5.26966 37.1198C5.18866 36.6595 5.11681 36.1916 5.05689 35.7287C4.87636 34.3381 3.60277 33.357 2.21213 33.5375C0.821485 33.718 -0.159607 34.9919 0.0209204 36.3823C0.0907445 36.921 0.174279 37.4657 0.268732 38.0012C1.0792 42.5996 2.76006 46.9562 5.55886 51.7111C9.79477 58.908 25.2259 71.4822 37.6251 81.5859C40.7774 84.1544 43.7544 86.5804 46.0213 88.501C48.2602 90.3979 51.0044 91.346 53.7497 91.346C56.4926 91.346 59.2363 90.3984 61.4745 88.504C62.6148 87.5389 63.9138 86.4626 65.411 85.2342C69.0884 99.4451 81.9363 109.965 97.1769 109.965C115.275 109.965 129.999 95.1302 129.999 76.8962C130 61.5171 119.526 48.5563 105.387 44.8746ZM97.1775 104.886C81.8789 104.886 69.4327 92.3299 69.4327 76.896C69.4327 61.462 81.8789 48.9056 97.1775 48.9056C112.476 48.9056 124.922 61.462 124.922 76.896C124.922 92.3299 112.476 104.886 97.1775 104.886Z" fill="white"/>
<path d="M109.339 68.1721H105.85V64.6296C105.85 61.5147 103.327 58.9807 100.226 58.9807H94.1293C91.0284 58.9807 88.5055 61.5147 88.5055 64.6296V68.1721H85.0159C81.9149 68.1721 79.3921 70.7061 79.3921 73.821V79.9719C79.3921 83.0868 81.9149 85.6208 85.0159 85.6208H88.5055V89.1636C88.5055 92.2782 91.0284 94.8125 94.1293 94.8125H100.226C103.327 94.8125 105.85 92.2785 105.85 89.1636V85.6208H109.339C112.44 85.6208 114.963 83.0868 114.963 79.9719V73.821C114.963 70.7061 112.44 68.1721 109.339 68.1721ZM109.885 79.9716C109.885 80.2862 109.64 80.5424 109.34 80.5424H103.311C101.909 80.5424 100.772 81.6792 100.772 83.0815V89.1633C100.772 89.4779 100.527 89.7341 100.226 89.7341H94.1296C93.8284 89.7341 93.5839 89.4781 93.5839 89.1633V83.0815C93.5839 81.6792 92.4469 80.5424 91.0449 80.5424H85.0161C84.715 80.5424 84.4705 80.2865 84.4705 79.9716V73.8208C84.4705 73.5059 84.7152 73.25 85.0161 73.25H91.0449C92.4469 73.25 93.5839 72.1133 93.5839 70.7109V64.6294C93.5839 64.3145 93.8287 64.0586 94.1296 64.0586H100.226C100.527 64.0586 100.772 64.3145 100.772 64.6294V70.7109C100.772 72.1133 101.909 73.25 103.311 73.25H109.34C109.641 73.25 109.885 73.5059 109.885 73.8208V79.9716Z" fill="white"/>
</svg>
