<svg width="82" height="84" viewBox="0 0 82 84" fill="none" xmlns="http://www.w3.org/2000/svg">
<path d="M80.9262 7.69385V26.4931H80.7708C80.7708 30.1897 62.9761 33.187 41.0186 33.187C19.0611 33.187 1.26642 30.1897 1.26642 26.4931C1.26642 26.2212 1.36078 25.9548 1.55504 25.6883V8.65962C4.72989 11.7679 21.1647 14.1323 40.9631 14.1323C62.7707 14.1323 80.5043 11.2628 80.9151 7.69385H80.9262Z" fill="#F2F2F2" stroke="white" stroke-width="1.5045" stroke-miterlimit="10"/>
<path d="M80.9262 7.56616C80.9262 7.61056 80.9262 7.64941 80.9151 7.69382C80.5043 11.2627 62.7707 14.1323 40.9631 14.1323C21.1647 14.1323 4.72989 11.7678 1.55504 8.65959C1.18871 8.30436 1 7.93804 1 7.56616C1 3.94173 18.8946 1 40.9631 1C63.0316 1 80.9262 3.94173 80.9262 7.56616Z" stroke="white" stroke-width="1.4657" stroke-miterlimit="10"/>
<path d="M80.9262 57.6938V76.4931H80.7708C80.7708 80.1897 62.9761 83.187 41.0186 83.187C19.0611 83.187 1.26642 80.1897 1.26642 76.4931C1.26642 76.2212 1.36078 75.9548 1.55504 75.6883V58.6596C4.72989 61.7679 21.1647 64.1323 40.9631 64.1323C62.7707 64.1323 80.5043 61.2628 80.9151 57.6938H80.9262Z" fill="#F2F2F2" stroke="white" stroke-width="1.5045" stroke-miterlimit="10"/>
<path d="M80.9262 57.5662C80.9262 57.6106 80.9262 57.6494 80.9151 57.6938C80.5043 61.2627 62.7707 64.1323 40.9631 64.1323C21.1647 64.1323 4.72989 61.7678 1.55504 58.6596C1.18871 58.3044 1 57.938 1 57.5662C1 53.9417 18.8946 51 40.9631 51C63.0316 51 80.9262 53.9417 80.9262 57.5662Z" stroke="white" stroke-width="1.4657" stroke-miterlimit="10"/>
<path d="M80.9262 32.6938V51.4931H80.7708C80.7708 55.1897 62.9761 58.187 41.0186 58.187C19.0611 58.187 1.26642 55.1897 1.26642 51.4931C1.26642 51.2212 1.36078 50.9548 1.55504 50.6883V33.6596C4.72989 36.7679 21.1647 39.1323 40.9631 39.1323C62.7707 39.1323 80.5043 36.2628 80.9151 32.6938H80.9262Z" fill="#F2F2F2" stroke="white" stroke-width="1.5045" stroke-miterlimit="10"/>
<path d="M80.9262 32.5662C80.9262 32.6106 80.9262 32.6494 80.9151 32.6938C80.5043 36.2627 62.7707 39.1323 40.9631 39.1323C21.1647 39.1323 4.72989 36.7678 1.55504 33.6596C1.18871 33.3044 1 32.938 1 32.5662C1 28.9417 18.8946 26 40.9631 26C63.0316 26 80.9262 28.9417 80.9262 32.5662Z" stroke="white" stroke-width="1.4657" stroke-miterlimit="10"/>
</svg>
