<svg width="82" height="83" viewBox="0 0 82 83" fill="none" xmlns="http://www.w3.org/2000/svg">
<path d="M80.9262 56.6938V75.4931H80.7708C80.7708 79.1897 62.9761 82.187 41.0186 82.187C19.0611 82.187 1.26642 79.1897 1.26642 75.4931C1.26642 75.2212 1.36078 74.9548 1.55504 74.6883V57.6596C4.72989 60.7679 21.1647 63.1323 40.9631 63.1323C62.7707 63.1323 80.5043 60.2628 80.9151 56.6938H80.9262Z" fill="#F2F2F2" stroke="white" stroke-width="1.5045" stroke-miterlimit="10"/>
<path d="M80.9262 56.5662C80.9262 56.6106 80.9262 56.6494 80.9151 56.6938C80.5043 60.2627 62.7707 63.1323 40.9631 63.1323C21.1647 63.1323 4.72989 60.7678 1.55504 57.6596C1.18871 57.3044 1 56.938 1 56.5662C1 52.9417 18.8946 50 40.9631 50C63.0316 50 80.9262 52.9417 80.9262 56.5662Z" stroke="white" stroke-width="1.4657" stroke-miterlimit="10"/>
</svg>
