<svg width="122" height="74" viewBox="0 0 122 74" fill="none" xmlns="http://www.w3.org/2000/svg">
<path d="M121.361 2.1732L121.27 0.535246L119.636 0.382924C119.238 0.345859 109.744 -0.513992 98.897 0.625875L99.2951 4.41308C105.499 3.76089 111.344 3.79593 115.092 3.93378L86.3275 32.5087V6.96192C89.051 6.09673 96.0379 4.9071 99.4636 4.3915L99.1803 2.50869L98.897 0.625875C88.887 2.13233 77.5726 5.63825 72.9766 10.0657C62.1458 20.4987 68.1424 43.4943 69.7694 48.9573L62.8505 55.8305C62.1768 56.4837 61.589 57.2136 61.0897 57.9973C60.5931 57.2176 60.0097 56.4923 59.3416 55.8447L52.2657 48.8382C53.9433 43.1622 59.7747 20.4222 49.0231 10.0654C35.894 -2.58175 3.72641 0.256243 2.3634 0.382924L0.730009 0.535246L0.639125 2.1732C0.563218 3.53977 -1.06991 35.7912 12.0594 48.4384C15.4803 51.7336 23.5317 53.8843 29.7288 54.4822L30.0944 50.6917C24.7736 50.1784 17.4878 48.3802 14.7011 45.6958C12.8322 43.8954 11.2983 41.5951 10.0381 38.998H36.9164L46.5364 48.5239C43.0313 49.4196 36.0202 50.7006 29.7448 50.6742L29.7288 54.4822C29.7989 54.4825 30.6991 54.5 30.7692 54.5C39.0877 54.5 46.9444 52.4218 49.6641 51.6206L56.677 58.5649C58.2733 60.1122 59.1875 62.2744 59.1852 64.4975L59.3416 72.9998L63.1496 73.0028L62.9932 64.5008V64.4973C62.9912 62.2742 63.9053 60.112 65.5179 58.5484L72.4566 51.6554C74.6513 52.2951 79.8254 53.6561 85.8883 54.2347C87.7844 54.4157 89.594 54.5058 91.3195 54.5058C99.502 54.5056 105.752 52.4728 109.941 48.4381C123.07 35.7912 121.437 3.53977 121.361 2.1732ZM25.4093 4.73752V10.2003H29.2173V5.35341C35.8791 6.61412 42.2902 8.86719 46.3813 12.8082C54.5673 20.6934 51.035 38.5159 49.1556 45.7588L29.2173 26.0155V10.2003H27.3133H25.4093V22.2448L6.91906 3.93555C11.2044 3.78044 18.2236 3.76089 25.4093 4.73752ZM4.36109 6.76161L14.8479 17.1458H4.83353C4.46898 13.0756 4.3687 9.41834 4.36109 6.76161ZM8.44658 35.1903C6.83249 30.6935 5.84367 25.6811 5.24404 20.9538H18.6935L33.0708 35.1903H8.44658ZM104.883 19.4431L117.639 6.77177C117.629 9.91948 117.49 14.4685 116.936 19.4431H104.883ZM116.435 23.2511C115.822 27.2785 114.908 31.416 113.553 35.1903H89.0314L101.05 23.2511H116.435ZM70.7466 34.3131C70.0439 27.3206 70.3186 17.9135 75.6183 12.8085C77.3961 11.0959 79.7025 9.61966 82.5195 8.38561V36.2918L72.8712 45.8761C72.1652 43.1795 71.2129 38.9541 70.7466 34.3131ZM107.299 45.6961C99.2225 53.4761 82.4646 50.2959 75.581 48.5518L85.198 38.9983H111.962C110.702 41.5953 109.168 43.8956 107.299 45.6961Z" fill="white"/>
</svg>
