<svg width="168" height="45" viewBox="0 0 168 45" fill="none" xmlns="http://www.w3.org/2000/svg">
<path d="M14.5103 9.8C16.7903 9.8 18.7703 10.184 20.4503 10.952C22.1303 11.696 23.4263 12.776 24.3383 14.192C25.2503 15.584 25.7063 17.228 25.7063 19.124C25.7063 21.02 25.2503 22.664 24.3383 24.056C23.4263 25.448 22.1303 26.528 20.4503 27.296C18.7703 28.04 16.7903 28.412 14.5103 28.412L10.1183 28.412L10.1183 35L2.9903 35L2.99031 9.8L14.5103 9.8ZM14.0783 22.796C15.5423 22.796 16.6463 22.484 17.3903 21.86C18.1343 21.212 18.5063 20.3 18.5063 19.124C18.5063 17.948 18.1343 17.036 17.3903 16.388C16.6463 15.74 15.5423 15.416 14.0783 15.416L10.1183 15.416L10.1183 22.796L14.0783 22.796ZM42.2413 35.504C39.5773 35.504 37.1773 34.94 35.0413 33.812C32.9293 32.684 31.2613 31.124 30.0373 29.132C28.8373 27.14 28.2373 24.896 28.2373 22.4C28.2373 19.904 28.8373 17.66 30.0373 15.668C31.2613 13.676 32.9293 12.116 35.0413 10.988C37.1773 9.86 39.5773 9.296 42.2413 9.296C44.9053 9.296 47.2933 9.86 49.4053 10.988C51.5413 12.116 53.2093 13.676 54.4093 15.668C55.6333 17.66 56.2453 19.904 56.2453 22.4C56.2453 24.896 55.6333 27.14 54.4093 29.132C53.2093 31.124 51.5413 32.684 49.4053 33.812C47.2933 34.94 44.9053 35.504 42.2413 35.504ZM42.2413 29.6C43.5133 29.6 44.6653 29.3 45.6973 28.7C46.7293 28.1 47.5453 27.26 48.1453 26.18C48.7453 25.076 49.0453 23.816 49.0453 22.4C49.0453 20.984 48.7453 19.736 48.1453 18.656C47.5453 17.552 46.7293 16.7 45.6973 16.1C44.6653 15.5 43.5133 15.2 42.2413 15.2C40.9693 15.2 39.8173 15.5 38.7853 16.1C37.7533 16.7 36.9373 17.552 36.3373 18.656C35.7373 19.736 35.4373 20.984 35.4373 22.4C35.4373 23.816 35.7373 25.076 36.3373 26.18C36.9373 27.26 37.7533 28.1 38.7853 28.7C39.8173 29.3 40.9693 29.6 42.2413 29.6ZM71.6066 35.504C67.8626 35.504 64.9466 34.484 62.8586 32.444C60.7946 30.404 59.7626 27.512 59.7626 23.768L59.7626 9.8L66.8906 9.8L66.8906 23.552C66.8906 27.584 68.4866 29.6 71.6786 29.6C74.8466 29.6 76.4306 27.584 76.4306 23.552L76.4306 9.8L83.4506 9.8L83.4506 23.768C83.4506 27.512 82.4066 30.404 80.3186 32.444C78.2546 34.484 75.3506 35.504 71.6066 35.504ZM100.843 35.504C98.2034 35.504 95.8274 34.952 93.7154 33.848C91.6274 32.72 89.9834 31.16 88.7834 29.168C87.5834 27.176 86.9834 24.92 86.9834 22.4C86.9834 19.88 87.5834 17.624 88.7834 15.632C89.9834 13.64 91.6274 12.092 93.7154 10.988C95.8274 9.86 98.2034 9.296 100.843 9.296C103.147 9.296 105.223 9.704 107.071 10.52C108.919 11.336 110.455 12.512 111.679 14.048L107.143 18.152C105.511 16.184 103.531 15.2 101.203 15.2C99.8354 15.2 98.6114 15.5 97.5314 16.1C96.4754 16.7 95.6474 17.552 95.0474 18.656C94.4714 19.736 94.1834 20.984 94.1834 22.4C94.1834 23.816 94.4714 25.076 95.0474 26.18C95.6474 27.26 96.4754 28.1 97.5314 28.7C98.6114 29.3 99.8354 29.6 101.203 29.6C103.531 29.6 105.511 28.616 107.143 26.648L111.679 30.752C110.455 32.288 108.919 33.464 107.071 34.28C105.223 35.096 103.147 35.504 100.843 35.504ZM138.833 9.8L138.833 35L131.705 35L131.705 25.172L121.985 25.172L121.985 35L114.857 35L114.857 9.8L121.985 9.8L121.985 19.268L131.705 19.268L131.705 9.8L138.833 9.8ZM157.361 25.964L157.361 35L150.233 35L150.233 25.856L140.621 9.8L148.145 9.8L154.121 19.808L160.097 9.80001L167.009 9.80001L157.361 25.964Z" fill="white"/>
<rect y="23" width="8.00003" height="10.2858" transform="rotate(-90 0 23)" fill="#030A00"/>
<rect x="3" y="15" width="17" height="1" fill="white"/>
<rect x="3" y="15" width="17" height="1" fill="white"/>
<rect x="3" y="15" width="17" height="1" fill="white"/>
<rect x="3" y="22" width="15" height="1" fill="white"/>
<rect x="3" y="22" width="15" height="1" fill="white"/>
<rect x="3" y="22" width="15" height="1" fill="white"/>
<rect x="2.48926" y="35.3401" width="25.6543" height="1.04807" transform="rotate(-90 2.48926 35.3401)" fill="#050B00"/>
</svg>
