<svg width="295" height="48" viewBox="0 0 295 48" fill="none" xmlns="http://www.w3.org/2000/svg">
<path d="M20.9989 1.84787C25.0841 1.84787 28.6318 2.5359 31.6419 3.91197C34.6521 5.24504 36.9742 7.18013 38.6083 9.71726C40.2424 12.2114 41.0594 15.157 41.0594 18.5542C41.0594 21.9514 40.2424 24.897 38.6083 27.3911C36.9742 29.8853 34.6521 31.8204 31.6419 33.1964C28.6318 34.5295 25.0841 35.196 20.9989 35.196H13.1295L13.1295 47.0001H0.35788L0.357882 1.84787L20.9989 1.84787ZM20 24.424C22.6231 24.424 24.8261 24.5745 26.1592 23.4564C27.4922 22.2954 28.1588 20.6613 28.1588 18.5542C28.1588 16.4471 27.4922 14.813 26.1592 13.652C24.8261 12.4909 23.1231 12.5 20.5 12.5H0.357881L0.357881 18.3646L0.357881 24.424L20 24.424Z" fill="white"/>
<path d="M70.686 47.9032C65.9128 47.9032 61.6126 46.8926 57.7854 44.8715C54.0012 42.8504 51.0125 40.0553 48.8194 36.4861C46.6693 32.9169 45.5943 28.8962 45.5943 24.424C45.5943 19.9518 46.6693 15.9311 48.8194 12.3619C51.0125 8.79271 54.0012 5.99758 57.7854 3.97647C61.6126 1.95537 65.9128 0.944824 70.686 0.944824C75.4593 0.944824 79.738 1.95537 83.5222 3.97647C87.3493 5.99758 90.338 8.79272 92.4881 12.3619C94.6812 15.9311 95.7778 19.9518 95.7778 24.424C95.7778 28.8962 94.6812 32.9169 92.4881 36.4861C90.338 40.0553 87.3493 42.8504 83.5222 44.8715C79.738 46.8926 75.4593 47.9032 70.686 47.9032ZM70.686 37.3246C72.9651 37.3246 75.0292 36.7871 76.8783 35.7121C78.7274 34.637 80.1895 33.1319 81.2645 31.1968C82.3396 29.2187 82.8771 26.9611 82.8771 24.424C82.8771 21.8869 82.3396 19.6508 81.2645 17.7157C80.1895 15.7376 78.7274 14.211 76.8783 13.1359C75.0292 12.0609 72.9651 11.5234 70.686 11.5234C68.4069 11.5234 66.3428 12.0609 64.4937 13.1359C62.6446 14.211 61.1825 15.7376 60.1075 17.7157C59.0324 19.6508 58.4949 21.8869 58.4949 24.424C58.4949 26.9611 59.0324 29.2187 60.1075 31.1968C61.1825 33.1319 62.6446 34.637 64.4937 35.712C66.3428 36.7871 68.4069 37.3246 70.686 37.3246Z" fill="white"/>
<path d="M123.301 47.9032C116.593 47.9032 111.368 46.0756 107.627 42.4204C103.929 38.7652 102.08 33.5834 102.08 26.8751V1.84787L114.852 1.84787L114.852 26.4881C114.852 33.7125 117.711 37.3246 123.43 37.3246C129.107 37.3246 131.945 33.7125 131.945 26.4881V1.84787L144.523 1.84787V26.8751C144.523 33.5834 142.652 38.7652 138.911 42.4204C135.213 46.0756 130.01 47.9032 123.301 47.9032Z" fill="white"/>
<path d="M175.687 47.9032C170.956 47.9032 166.699 46.9141 162.915 44.936C159.174 42.9149 156.228 40.1198 154.078 36.5506C151.928 32.9814 150.853 28.9392 150.853 24.424C150.853 19.9088 151.928 15.8666 154.078 12.2974C156.228 8.72821 159.174 5.95458 162.915 3.97648C166.699 1.95538 170.956 0.944829 175.687 0.944829C179.815 0.944829 183.535 1.67587 186.846 3.13794C190.157 4.60001 192.909 6.70712 195.102 9.45925L186.975 16.8126C184.051 13.2864 180.503 11.5234 176.332 11.5234C173.881 11.5234 171.687 12.0609 169.752 13.1359C167.86 14.211 166.377 15.7376 165.302 17.7157C164.27 19.6508 163.754 21.8869 163.754 24.424C163.754 26.9611 164.27 29.2187 165.302 31.1968C166.377 33.1319 167.86 34.637 169.752 35.7121C171.687 36.7871 173.881 37.3246 176.332 37.3246C180.503 37.3246 184.051 35.5615 186.975 32.0354L195.102 39.3887C192.909 42.1409 190.157 44.248 186.846 45.7101C183.535 47.1721 179.815 47.9032 175.687 47.9032Z" fill="white"/>
<path d="M243.756 1.84788V47.0001H230.984V29.3907H213.568V47.0001H200.797V1.84787L213.568 1.84788V18.8122L230.984 18.8122V1.84788L243.756 1.84788Z" fill="white"/>
<path d="M276.953 30.8098V47.0001H264.181V30.6163L246.959 1.84788L260.44 1.84788L271.148 19.7798L281.855 1.84788L294.24 1.84788L276.953 30.8098Z" fill="white"/>
</svg>
