<svg width="108" height="116" viewBox="0 0 108 116" fill="none" xmlns="http://www.w3.org/2000/svg">
<g clip-path="url(#clip0)">
<path d="M106.418 105.017H99.9021V78.5727C99.9021 77.6366 99.1938 76.8777 98.3201 76.8777C97.4464 76.8777 96.738 77.6366 96.738 78.5727V105.017H82.8562V46.7671H96.738V78.5727C96.738 79.5088 97.4464 77.0445 98.3201 77.0445C99.1938 77.0445 99.9021 79.5088 99.9021 78.5727V45.0721C99.9021 44.136 99.1938 43.3771 98.3201 43.3771H81.2742C80.4005 43.3771 79.6922 44.136 79.6922 45.0721V105.017H76.0379V54.2043C76.0379 53.2682 75.3296 52.5092 74.4559 52.5092H57.4094C56.5357 52.5092 55.8273 53.2682 55.8273 54.2043V105.017H52.1729V67.9024C52.1729 66.9663 51.4645 66.2073 50.5908 66.2073H33.5443C32.6706 66.2073 31.9623 66.9663 31.9623 67.9024V105.017H28.3078V78.8609C28.3078 77.9248 27.5995 77.1658 26.7258 77.1658H9.67908C8.80538 77.1658 8.09705 77.9248 8.09705 78.8609V105.017H1.58203C0.708328 105.017 0 105.776 0 106.712V114.019C0 114.955 0.708328 115.714 1.58203 115.714H26.7258C27.5995 115.714 27.2755 115.174 27.2755 114.238C27.2755 113.302 28.1492 112.324 27.2755 112.324H3.16406V108.408H104.836V112.324H26.0508C25.1771 112.324 24.4687 113.083 24.4687 114.019C24.4687 114.955 25.1771 115.714 26.0508 115.714H106.418C107.292 115.714 108 114.955 108 114.019V106.712C108 105.776 107.292 105.017 106.418 105.017ZM58.9914 55.8993H72.8738V105.017H58.9914V55.8993ZM35.1262 69.5974H49.0086V105.017H35.1262V69.5974ZM11.2611 80.5559H25.1435V105.017H11.2611V80.5559Z" fill="white"/>
<path d="M9.4668 63.606H33.5432C34.94 63.606 36.2816 62.9739 37.2238 61.8721L56.8347 38.9489H70.1935C71.5273 38.9489 72.7809 38.3929 73.7232 37.3834L89.9204 20.0292V25.3839C89.9204 26.32 90.6287 27.0789 91.5024 27.0789H98.3199C99.1936 27.0789 99.902 26.32 99.902 25.3839V7.11842C99.902 4.16996 97.6631 1.77115 94.9112 1.77115H77.8653C76.9916 1.77115 76.2833 2.53007 76.2833 3.46618V10.7729C76.2833 11.709 76.9916 12.4679 77.8653 12.4679H82.8612L68.1272 28.2544H54.639C53.2437 28.2544 51.9027 28.8865 50.9607 29.988L31.3475 52.9115H26.9851C26.1114 52.9115 25.4031 53.6704 25.4031 54.6065C25.4031 55.5426 26.1114 56.3015 26.9851 56.3015H32.0434C32.4868 56.3015 32.91 56.1022 33.2095 55.7519L53.293 32.2788C53.6377 31.8759 54.1281 31.6447 54.6388 31.6447H68.7822C69.2017 31.6447 69.6042 31.4661 69.9008 31.1481L87.7988 11.9716C88.2513 11.4869 88.3867 10.7578 88.1418 10.1245C87.8969 9.49101 87.32 9.0781 86.6802 9.0781H79.4472V5.16122H94.911C95.9182 5.16122 96.7377 6.03924 96.7377 7.11842V23.6891H93.0843V15.9371C93.0843 15.2516 92.6989 14.6335 92.1076 14.3711C91.5168 14.1092 90.8359 14.2538 90.3836 14.7386L71.486 34.9861C71.1413 35.3554 70.6821 35.5588 70.1935 35.5588H56.1388C55.6952 35.5588 55.2723 35.7582 54.9725 36.1085L34.8911 59.5815C34.5464 59.9847 34.0551 60.2159 33.5432 60.2159H11.0488V56.3015H26.9851C27.8588 56.3015 26.4489 55.5426 26.4489 54.6065C26.4489 53.6704 27.5981 52.9344 26.7244 52.9344L9.4668 52.9115C8.59309 52.9115 7.88477 53.6704 7.88477 54.6065V61.911C7.88477 62.8471 8.59309 63.606 9.4668 63.606Z" fill="white"/>
</g>
<defs>
<clipPath id="clip0">
<rect width="108" height="115.714" fill="white"/>
</clipPath>
</defs>
</svg>
