<svg width="135" height="160" viewBox="0 0 135 160" fill="none" xmlns="http://www.w3.org/2000/svg">
<g clip-path="url(#clip0)">
<path d="M132.451 45.2674L134.228 43.49C135.258 42.4604 135.258 40.7908 134.228 39.7609C133.199 38.7316 131.529 38.7316 130.499 39.7609L128.722 41.5383L126.946 39.762C126.451 39.2676 125.78 38.9897 125.081 38.9897H122.181L108.714 25.5223C108.219 25.0279 107.548 24.75 106.849 24.75H9.49676C4.26082 24.75 0.000976562 29.0096 0.000976562 34.2458V83.6576C0.000976562 88.8935 4.26082 93.1533 9.49676 93.1533H32.4676L17.0206 108.601C15.2271 110.394 14.2394 112.779 14.2394 115.315C14.2394 117.851 15.2271 120.236 17.0206 122.03L51.9599 156.969C53.7534 158.763 56.138 159.75 58.6745 159.75C61.211 159.75 63.5956 158.763 65.3891 156.969L108.337 114.022C109.367 112.992 109.367 111.322 108.337 110.293C107.307 109.263 105.638 109.263 104.608 110.293L61.66 153.24C60.8627 154.038 59.8022 154.477 58.6745 154.477C57.5468 154.477 56.4863 154.038 55.689 153.24L20.7494 118.301C19.952 117.503 19.5128 116.443 19.5128 115.315C19.5128 114.187 19.952 113.127 20.7494 112.33L88.8156 44.2636H123.989L124.993 45.2677L118.896 51.3647C117.863 50.8696 116.708 50.5919 115.488 50.5919C111.126 50.5919 107.578 54.1404 107.578 58.502C107.578 62.8636 111.126 66.412 115.488 66.412C119.85 66.412 123.398 62.8636 123.398 58.502C123.398 57.2822 123.12 56.1263 122.625 55.0938L128.722 48.9967L129.726 50.0008V85.1742L104.608 110.293C103.579 111.322 103.578 112.992 104.608 114.022C105.638 115.051 107.307 115.051 108.337 114.022L134.228 88.1312C134.722 87.6366 135 86.9661 135 86.2668V48.9081C135 48.2089 134.722 47.5384 134.228 47.0437L132.451 45.2674ZM47.3504 72.0614C45.896 72.0614 44.7129 70.8783 44.7129 69.4239C44.7129 67.9693 45.896 66.7862 47.3504 66.7862C48.8048 66.7862 49.9879 67.9693 49.9879 69.4239C49.9879 70.8781 48.8048 72.0614 47.3504 72.0614ZM87.7234 38.99C87.0242 38.99 86.3534 39.2679 85.859 39.7622L55.1959 70.4251C55.2376 70.0968 55.2615 69.763 55.2615 69.4237C55.2615 65.0615 51.7128 61.5125 47.3507 61.5125C42.9888 61.5125 39.4398 65.0615 39.4398 69.4237C39.4398 73.7858 42.9885 77.3345 47.3507 77.3345C47.69 77.3345 48.0238 77.3105 48.3521 77.2689L37.7413 87.8797H9.49676C7.16856 87.8797 5.27436 85.9855 5.27436 83.6573V34.2458C5.27436 31.9176 7.16856 30.0234 9.49676 30.0234H105.757L114.723 38.99H87.7234ZM115.488 61.1381C114.034 61.1381 112.851 59.9553 112.851 58.5014C112.851 57.0476 114.034 55.8648 115.488 55.8648C116.09 55.8648 116.643 56.0696 117.088 56.4103C117.158 56.5015 117.232 56.5906 117.315 56.674C117.399 56.7573 117.488 56.8316 117.579 56.9015C117.92 57.3458 118.124 57.8995 118.124 58.5012C118.125 59.9553 116.942 61.1381 115.488 61.1381Z" fill="white"/>
<path d="M87.696 102.753C88.3953 102.753 89.066 102.475 89.5604 101.98L95.5264 96.014C96.5561 94.9843 96.5561 93.3148 95.5264 92.2849C94.4968 91.2555 92.8273 91.2555 91.7976 92.2849L87.696 96.3868L74.6449 83.336C73.6156 82.3066 71.9458 82.3066 70.9161 83.336C69.8865 84.3656 69.8865 86.0352 70.9161 87.0651L85.8316 101.98C86.3263 102.475 86.997 102.753 87.696 102.753Z" fill="white"/>
<path d="M108.205 79.6071C107.175 78.5777 105.506 78.5777 104.476 79.6071L101.12 82.9631L97.3909 79.2345L100.747 75.8786C101.776 74.8489 101.776 73.1794 100.747 72.1495C99.7172 71.1201 98.0477 71.1201 97.0178 72.1495L93.6618 75.5055L89.933 71.7767L93.289 68.4207C94.3186 67.391 94.3189 65.7215 93.289 64.6916C92.2593 63.6625 90.5898 63.6622 89.5602 64.6916L84.3398 69.912C83.8454 70.4064 83.5675 71.0771 83.5675 71.7764C83.5675 72.4756 83.8454 73.1462 84.3398 73.6408L99.2553 88.556C99.7699 89.0707 100.445 89.3283 101.12 89.3283C101.794 89.3283 102.469 89.0707 102.984 88.556L108.204 83.3356C109.234 82.3063 109.234 80.6367 108.205 79.6071Z" fill="white"/>
<path d="M79.0415 109.923C80.3385 110.584 81.9266 110.068 82.5879 108.77C83.2489 107.473 82.7329 105.885 81.4351 105.224L61.6724 95.1561C60.6546 94.6375 59.4188 94.8334 58.6112 95.641C57.8036 96.4486 57.6077 97.6847 58.1263 98.7022L68.1942 118.465C68.6599 119.379 69.5853 119.906 70.5456 119.905C70.9482 119.905 71.3572 119.813 71.7403 119.617C73.0378 118.956 73.5538 117.369 72.8931 116.071L72.0847 114.484L77.4548 109.114L79.0415 109.923ZM69.5674 109.544L66.5078 103.538L72.5142 106.597L69.5674 109.544Z" fill="white"/>
<path d="M53.7636 130.319C52.7339 131.349 52.7337 133.019 53.7636 134.048C54.2785 134.563 54.9532 134.821 55.628 134.821C56.3027 134.821 56.9777 134.563 57.4924 134.048L61.2214 130.32C64.3056 127.235 64.3056 122.217 61.2214 119.133C58.29 116.201 53.6127 116.059 50.508 118.699C50.4115 118.773 50.3177 118.85 50.2299 118.938L50.0348 119.133C49.5367 119.631 48.8746 119.905 48.1704 119.905C47.4661 119.905 46.804 119.631 46.306 119.133C45.2779 118.105 45.2779 116.432 46.306 115.404L50.0348 111.675C51.0644 110.645 51.0647 108.976 50.0348 107.946C49.0051 106.917 47.3356 106.917 46.306 107.946L42.5769 111.675C39.4928 114.759 39.4928 119.777 42.5769 122.862C44.0711 124.356 46.0573 125.178 48.1701 125.178C50.28 125.178 52.2638 124.358 53.7578 122.867C53.7596 122.865 53.7617 122.864 53.7636 122.862C54.7913 121.833 56.4643 121.833 57.4924 122.862C57.9904 123.36 58.2646 124.022 58.2646 124.726C58.2646 125.43 57.9904 126.092 57.4924 126.59L53.7636 130.319Z" fill="white"/>
<path d="M45.1768 41.7717C43.9088 41.0561 42.3004 41.5032 41.5846 42.7715L24.5779 72.8967C23.8621 74.165 24.3095 75.7731 25.5778 76.4889C25.9875 76.7202 26.4323 76.8301 26.8716 76.8301C27.7918 76.8301 28.6854 76.3476 29.17 75.4891L46.1766 45.3639C46.8925 44.0956 46.445 42.4873 45.1768 41.7717Z" fill="white"/>
<path d="M33.0054 48.4798C33.0054 44.1176 29.4567 40.5688 25.0945 40.5688C20.7323 40.5688 17.1833 44.1176 17.1833 48.4798C17.1833 52.842 20.732 56.391 25.0942 56.391C29.4564 56.391 33.0054 52.842 33.0054 48.4798ZM22.4567 48.4798C22.4567 47.0254 23.6398 45.8423 25.0942 45.8423C26.5487 45.8423 27.7317 47.0254 27.7317 48.4798C27.7317 49.9345 26.5487 51.1176 25.0942 51.1176C23.6398 51.1176 22.4567 49.9345 22.4567 48.4798Z" fill="white"/>
<path d="M98.0824 117.909C97.3863 117.909 96.7087 118.191 96.2182 118.682C95.7278 119.172 95.4457 119.852 95.4457 120.546C95.4457 121.24 95.7278 121.92 96.2182 122.41C96.7087 122.9 97.3863 123.183 98.0824 123.183C98.7759 123.183 99.4561 122.901 99.9466 122.41C100.437 121.92 100.719 121.24 100.719 120.546C100.719 119.852 100.437 119.172 99.9466 118.682C99.4561 118.192 98.7759 117.909 98.0824 117.909Z" fill="white"/>
</g>
<path d="M99.0824 12.7881C100.043 13.0802 101.14 12.7368 101.532 12.0205L106.407 3.03567C106.799 2.3194 106.338 1.50202 105.377 1.20983C105.066 1.11545 104.742 1.08733 104.431 1.11678C103.781 1.17847 103.193 1.49262 102.927 1.97748L98.0524 10.9623C97.6604 11.6786 98.1214 12.4961 99.0824 12.7881Z" fill="white"/>
<path d="M70.1072 13.243C71.1448 13.2529 71.9971 12.6342 72.0104 11.8606L72.1371 2.1695C72.1504 1.39599 71.3202 0.760963 70.2823 0.751057C69.947 0.747876 69.6314 0.81015 69.3568 0.922233C68.7816 1.15703 68.3882 1.60982 68.3792 2.13344L68.2525 11.8246C68.2392 12.5981 69.0695 13.2332 70.1072 13.243Z" fill="white"/>
<path d="M38.3119 12.7539C39.2694 12.456 39.7221 11.6359 39.3224 10.922L34.2771 1.98968C33.8773 1.27579 32.7771 0.938571 31.8193 1.23653C31.5098 1.33281 31.2533 1.48337 31.0609 1.66748C30.6581 2.05316 30.5382 2.58514 30.8088 3.0684L35.854 12.0008C36.2538 12.7146 37.3542 13.052 38.3119 12.7539Z" fill="white"/>
<defs>
<clipPath id="clip0">
<rect width="135" height="135" fill="white" transform="translate(0 24.75)"/>
</clipPath>
</defs>
</svg>
