<svg width="150" height="96" viewBox="0 0 150 96" fill="none" xmlns="http://www.w3.org/2000/svg">
<path d="M139.5 40.7825L135.615 25.2449C136.677 25.0193 137.474 24.0772 137.474 22.9483V20.4432C137.474 15.0039 133.049 10.5789 127.61 10.5789H109.917V5.41152C109.917 2.73496 107.739 0.557617 105.063 0.557617H14.8748C12.1982 0.557617 10.0209 2.73496 10.0209 5.41152V48.0004C10.0209 49.2974 11.0723 50.3491 12.3696 50.3491C13.6666 50.3491 14.7183 49.2977 14.7183 48.0004V5.41152C14.7183 5.3251 14.7884 5.25508 14.8748 5.25508H105.063C105.149 5.25508 105.219 5.3251 105.219 5.41152V48.001C105.219 49.298 106.27 50.3497 107.568 50.3497C108.865 50.3497 109.916 49.2983 109.916 48.001V45.3385H137.622C137.625 45.3385 137.626 45.3391 137.628 45.3391C137.631 45.3391 137.633 45.3388 137.635 45.3388C141.044 45.3411 143.939 47.5788 144.933 50.6623H137.63C136.333 50.6623 135.281 51.7138 135.281 53.011V58.0214C135.281 62.0793 138.583 65.3805 142.64 65.3805H145.302V75.7144H139.161C137.144 69.8893 131.606 65.6934 125.104 65.6934C118.602 65.6934 113.064 69.8893 111.047 75.7144H109.916V58.0211C109.916 56.7241 108.864 55.6724 107.567 55.6724C106.27 55.6724 105.218 56.7238 105.218 58.0211V75.7138H56.4895C54.4721 69.8887 48.9347 65.6928 42.4323 65.6928C35.9299 65.6928 30.3922 69.8887 28.3751 75.7138H14.8748C14.7884 75.7138 14.7183 75.6438 14.7183 75.5573V70.3902H24.8958C26.1928 70.3902 27.2445 69.3388 27.2445 68.0415C27.2445 66.7442 26.193 65.6928 24.8958 65.6928H2.34891C1.05194 65.6928 0.000183105 66.7442 0.000183105 68.0415C0.000183105 69.3388 1.05165 70.3902 2.34891 70.3902H10.0212V75.5573C10.0212 78.2339 12.1985 80.4112 14.8751 80.4112H27.5618C27.5612 80.4634 27.5577 80.5152 27.5577 80.5677C27.5577 88.7696 34.2306 95.4423 42.4323 95.4423C50.634 95.4423 57.3069 88.7696 57.3069 80.5677C57.3069 80.5149 57.3034 80.4634 57.3028 80.4112H110.233C110.233 80.4634 110.229 80.5152 110.229 80.5677C110.229 88.7696 116.902 95.4423 125.104 95.4423C133.306 95.4423 139.979 88.7696 139.979 80.5677C139.979 80.5149 139.975 80.4634 139.974 80.4112H147.651C148.948 80.4112 150 79.3598 150 78.0625V53.0105C150 46.8253 145.437 41.6863 139.5 40.7825ZM109.917 15.2761H127.61C130.459 15.2761 132.777 17.594 132.777 20.4432V20.5996H109.917V15.2761ZM109.917 40.6413V25.2968H130.786L134.623 40.6413H109.917ZM42.4323 90.7457C36.8205 90.7457 32.2549 86.1804 32.2549 80.5683C32.2549 74.9562 36.8205 70.3908 42.4323 70.3908C48.0441 70.3908 52.6097 74.9562 52.6097 80.5683C52.6097 86.1804 48.0441 90.7457 42.4323 90.7457ZM125.105 90.7457C119.493 90.7457 114.927 86.1804 114.927 80.5683C114.927 74.9562 119.493 70.3908 125.105 70.3908C130.716 70.3908 135.282 74.9562 135.282 80.5683C135.282 86.1804 130.716 90.7457 125.105 90.7457ZM145.303 60.683H142.641C141.173 60.683 139.979 59.4889 139.979 58.0211V55.3592H145.303L145.303 60.683Z" fill="white"/>
<path d="M42.4325 75.7144C39.756 75.7144 37.5786 77.8917 37.5786 80.5683C37.5786 83.2448 39.756 85.4222 42.4325 85.4222C45.1091 85.4222 47.2864 83.2448 47.2864 80.5683C47.2864 77.8917 45.1091 75.7144 42.4325 75.7144Z" fill="white"/>
<path d="M125.105 75.7144C122.428 75.7144 120.251 77.8917 120.251 80.5683C120.251 83.2448 122.428 85.4222 125.105 85.4222C127.781 85.4222 129.958 83.2448 129.958 80.5683C129.958 77.8917 127.781 75.7144 125.105 75.7144Z" fill="white"/>
<path d="M97.5472 65.6938H62.4742C61.1772 65.6938 60.1255 66.7453 60.1255 68.0426C60.1255 69.3399 61.1769 70.3913 62.4742 70.3913H97.5472C98.8442 70.3913 99.896 69.3399 99.896 68.0426C99.896 66.7453 98.8445 65.6938 97.5472 65.6938Z" fill="white"/>
<path d="M37.4222 55.6729H7.35946C6.06249 55.6729 5.01073 56.7243 5.01073 58.0216C5.01073 59.3188 6.0622 60.3703 7.35946 60.3703H37.4222C38.7191 60.3703 39.7709 59.3188 39.7709 58.0216C39.7709 56.7243 38.7191 55.6729 37.4222 55.6729Z" fill="white"/>
<path d="M81.6712 23.7924C80.7542 22.8755 79.2668 22.8755 78.3498 23.7927L57.4635 44.6788L46.5982 33.8134C45.6809 32.8962 44.1938 32.8962 43.2768 33.8134C42.3595 34.7307 42.3595 36.2175 43.2768 37.1348L55.8029 49.661C56.2614 50.1198 56.8626 50.3489 57.4635 50.3489C58.0644 50.3489 58.6658 50.1198 59.124 49.661L81.6709 27.1141C82.5882 26.1965 82.5882 24.7097 81.6712 23.7924Z" fill="white"/>
</svg>
