<svg width="104" height="136" viewBox="0 0 104 136" fill="none" xmlns="http://www.w3.org/2000/svg">
<path d="M45.5 72.074C45.931 72.074 46.3443 71.9028 46.649 71.598C46.9538 71.2933 47.125 70.88 47.125 70.449C47.125 70.018 46.9538 69.6047 46.649 69.2999C46.3443 68.9952 45.931 68.824 45.5 68.824H42.25C41.819 68.824 41.4057 68.9952 41.101 69.2999C40.7962 69.6047 40.625 70.018 40.625 70.449C40.625 70.88 40.7962 71.2933 41.101 71.598C41.4057 71.9028 41.819 72.074 42.25 72.074H45.5Z" fill="white"/>
<path d="M58.5 72.074H61.75C62.181 72.074 62.5943 71.9028 62.8991 71.598C63.2038 71.2933 63.375 70.88 63.375 70.449C63.375 70.018 63.2038 69.6047 62.8991 69.2999C62.5943 68.9952 62.181 68.824 61.75 68.824H58.5C58.069 68.824 57.6557 68.9952 57.351 69.2999C57.0462 69.6047 56.875 70.018 56.875 70.449C56.875 70.88 57.0462 71.2933 57.351 71.598C57.6557 71.9028 58.069 72.074 58.5 72.074Z" fill="white"/>
<path d="M92.6251 101.324C95.2101 101.321 97.6885 100.293 99.5163 98.4651C101.344 96.6372 102.372 94.1589 102.375 91.5739C102.381 90.2346 102.108 88.9088 101.573 87.6807C101.039 86.4526 100.255 85.349 99.2713 84.4401C101.26 73.51 101.256 62.2142 99.2551 49.9718C100.244 49.0628 101.032 47.9576 101.569 46.7268C102.106 45.4961 102.381 44.1668 102.375 42.8239C102.375 40.8576 101.78 38.9373 100.669 37.315C99.5579 35.6928 97.9823 34.4443 96.149 33.7335C94.3157 33.0226 92.3103 32.8826 90.396 33.3319C88.4817 33.7811 86.748 34.7986 85.4223 36.2508C63.1884 34.1911 40.8117 34.1911 18.5779 36.2508C17.2522 34.7986 15.5184 33.7811 13.6041 33.3319C11.6898 32.8826 9.68446 33.0226 7.85115 33.7335C6.01784 34.4443 4.44225 35.6928 3.33115 37.315C2.22005 38.9373 1.62535 40.8576 1.62508 42.8239C1.61951 44.156 1.88946 45.4748 2.418 46.6976C2.94653 47.9203 3.72222 49.0206 4.69633 49.9292C2.72805 59.0292 2.75039 70.0426 4.76336 84.4076C3.32139 85.7379 2.31427 87.4722 1.87363 89.384C1.43298 91.2957 1.57932 93.2959 2.2935 95.1232C3.00768 96.9504 4.25649 98.5197 5.87672 99.626C7.49694 100.732 9.41321 101.324 11.3751 101.324C12.7313 101.329 14.0735 101.049 15.3144 100.502C16.5553 99.9542 17.6672 99.152 18.5779 98.147C21.2876 98.3989 24.0088 98.6203 26.7415 98.8112L25.9005 99.0082C19.9124 100.418 15.6955 104.807 14.8038 110.395C10.9099 110.592 7.02279 110.82 3.14242 111.078C2.73107 111.105 2.34548 111.288 2.06375 111.589C1.78201 111.89 1.6252 112.287 1.62508 112.699V132.199C1.62508 132.63 1.79628 133.043 2.10103 133.348C2.40578 133.653 2.8191 133.824 3.25008 133.824C3.68106 133.824 4.09438 133.653 4.39913 133.348C4.70387 133.043 4.87508 132.63 4.87508 132.199V114.22C36.2593 112.201 67.7409 112.201 99.1251 114.22V132.199C99.1251 132.63 99.2963 133.043 99.601 133.348C99.9058 133.653 100.319 133.824 100.75 133.824C101.181 133.824 101.594 133.653 101.899 133.348C102.204 133.043 102.375 132.63 102.375 132.199V112.699C102.375 112.287 102.218 111.89 101.936 111.589C101.655 111.288 101.269 111.105 100.858 111.078C96.978 110.818 93.0909 110.59 89.1963 110.395C88.3046 104.807 84.0877 100.418 78.0996 99.0082L77.2587 98.8112C79.9866 98.6203 82.7078 98.3989 85.4223 98.147C86.3329 99.152 87.4448 99.9542 88.6858 100.502C89.9267 101.049 91.2688 101.329 92.6251 101.324ZM77.3562 102.173C81.768 103.211 84.9429 106.284 85.8549 110.233C63.3365 109.199 40.6637 109.199 18.1452 110.233C19.0573 106.284 22.2321 103.211 26.644 102.173L38.2749 99.4348C39.7882 99.4937 41.2913 99.5425 42.766 99.579C43.4202 101.509 44.6627 103.186 46.319 104.373C47.9753 105.561 49.9621 106.199 52.0001 106.199C54.0381 106.199 56.0248 105.561 57.6811 104.373C59.3374 103.186 60.58 101.509 61.2341 99.579C62.7088 99.5425 64.214 99.4937 65.7252 99.4348L77.3562 102.173ZM32.5001 62.3239V57.4489C32.5045 53.5715 34.0468 49.8541 36.7886 47.1124C39.5303 44.3706 43.2477 42.8283 47.1251 42.8239H56.8751C60.7525 42.8283 64.4698 44.3706 67.2116 47.1124C69.9533 49.8541 71.4956 53.5715 71.5001 57.4489V62.3239H69.8751V58.0075C69.9761 57.7658 70.02 57.5041 70.0034 57.2427C69.9868 56.9813 69.9103 56.7273 69.7796 56.5003C69.7471 56.4475 68.9732 55.2125 67.4924 55.9661C67.3827 56.0229 67.2243 56.1062 67.0232 56.2159C66.6495 56.417 66.1193 56.7095 65.4855 57.0589C63.9926 57.8836 60.4745 59.8254 57.909 61.1112L58.4168 59.5878C58.5123 59.3015 58.5261 58.9942 58.4568 58.7005C58.3875 58.4067 58.2377 58.1381 58.0243 57.9246C57.8109 57.7112 57.5423 57.5615 57.2485 57.4921C56.9547 57.4228 56.6475 57.4367 56.3612 57.5322C56.217 57.5809 41.9109 62.3239 35.7501 62.3239H32.5001ZM34.1251 65.5739V75.3239H32.5001C32.0693 75.3233 31.6563 75.1519 31.3517 74.8473C31.0471 74.5426 30.8757 74.1297 30.8751 73.6989V67.1989C30.8757 66.7681 31.0471 66.3551 31.3517 66.0505C31.6563 65.7459 32.0693 65.5745 32.5001 65.5739H34.1251ZM73.1251 67.1989V73.6989C73.1245 74.1297 72.9531 74.5426 72.6485 74.8473C72.3438 75.1519 71.9309 75.3233 71.5001 75.3239H69.8751V65.5739H71.5001C71.9309 65.5745 72.3438 65.7459 72.6485 66.0505C72.9531 66.3551 73.1245 66.7681 73.1251 67.1989ZM37.3751 65.4967C42.4329 65.064 50.0907 62.8865 54.3238 61.5886L53.7084 63.435C53.6269 63.6793 53.6047 63.9394 53.6435 64.1939C53.6824 64.4485 53.7811 64.6902 53.9317 64.8991C54.0823 65.1079 54.2803 65.2781 54.5095 65.3954C54.7388 65.5127 54.9926 65.5739 55.2501 65.5739C56.2718 65.5739 58.2543 64.7532 66.6251 60.1423V76.9489C66.6251 80.8277 65.0842 84.5476 62.3415 87.2903C59.5988 90.033 55.8789 91.5739 52.0001 91.5739C48.1213 91.5739 44.4014 90.033 41.6586 87.2903C38.9159 84.5476 37.3751 80.8277 37.3751 76.9489V65.4967ZM58.5001 93.6011V96.4489C58.5003 96.862 58.4609 97.2742 58.3823 97.6798C58.3818 97.6832 58.3811 97.6866 58.3802 97.69V97.692C58.0913 99.1733 57.296 100.508 56.1306 101.467C54.9652 102.426 53.5024 102.949 51.9932 102.948C50.484 102.946 49.0224 102.419 47.8591 101.458C46.6959 100.496 45.9035 99.1597 45.6179 97.6778C45.5392 97.2729 45.4997 96.8613 45.5001 96.4489V93.6011C49.68 95.2315 54.3201 95.2315 58.5001 93.6011ZM66.038 96.1706L61.7501 95.1611V91.9232C64.0121 90.4497 65.9113 88.4833 67.3054 86.1714C68.6995 83.8595 69.5523 81.2622 69.7999 78.5739H71.5001C72.7925 78.5722 74.0315 78.058 74.9453 77.1441C75.8592 76.2303 76.3734 74.9913 76.3751 73.6989V67.1989C76.3754 66.5135 76.2307 65.8358 75.9507 65.2102C75.6706 64.5846 75.2615 64.0254 74.7501 63.569V57.4489C74.7447 52.7098 72.8597 48.1663 69.5087 44.8153C66.1576 41.4642 61.6142 39.5793 56.8751 39.5739H47.1251C42.386 39.5793 37.8425 41.4642 34.4915 44.8153C31.1404 48.1663 29.2555 52.7098 29.2501 57.4489V63.569C28.7387 64.0254 28.3295 64.5846 28.0495 65.2102C27.7694 65.8358 27.6248 66.5135 27.6251 67.1989V73.6989C27.6268 74.9913 28.141 76.2303 29.0548 77.1441C29.9687 78.058 31.2077 78.5722 32.5001 78.5739H34.2002C34.4479 81.2622 35.3007 83.8595 36.6948 86.1714C38.0888 88.4833 39.988 90.4497 42.2501 91.9232V95.1611L37.9621 96.1706C31.3362 95.9106 24.631 95.4617 18.0295 94.832C17.7528 94.8051 17.4739 94.8498 17.2196 94.9619C16.9652 95.0739 16.744 95.2495 16.5771 95.4718C16.0183 96.2169 15.306 96.8331 14.4884 97.2789C13.6707 97.7246 12.7668 97.9895 11.8379 98.0555C10.909 98.1215 9.9767 97.9871 9.10422 97.6615C8.23174 97.3359 7.43942 96.8265 6.78092 96.168C6.12241 95.5095 5.61309 94.7172 5.28745 93.8447C4.96181 92.9722 4.82745 92.04 4.89346 91.1111C4.95948 90.1821 5.22433 89.2782 5.67009 88.4606C6.11585 87.6429 6.7321 86.9306 7.47711 86.3718C7.70992 86.197 7.89141 85.9627 8.00256 85.6936C8.1137 85.4245 8.15041 85.1305 8.10883 84.8423C5.95367 69.9289 5.94555 58.7611 8.08242 49.6976C8.15525 49.3903 8.13676 49.0684 8.02923 48.7714C7.9217 48.4745 7.72981 48.2154 7.47711 48.0259C6.7321 47.4671 6.11585 46.7548 5.67009 45.9372C5.22433 45.1195 4.95948 44.2156 4.89346 43.2867C4.82745 42.3578 4.96181 41.4255 5.28745 40.553C5.61309 39.6805 6.12241 38.8882 6.78092 38.2297C7.43942 37.5712 8.23174 37.0619 9.10422 36.7362C9.9767 36.4106 10.909 36.2762 11.8379 36.3423C12.7668 36.4083 13.6707 36.6731 14.4884 37.1189C15.306 37.5646 16.0183 38.1809 16.5771 38.9259C16.744 39.1482 16.9652 39.3238 17.2196 39.4359C17.4739 39.5479 17.7528 39.5927 18.0295 39.5658C40.6256 37.4187 63.3745 37.4187 85.9707 39.5658C86.2473 39.5927 86.5262 39.5479 86.7806 39.4359C87.035 39.3238 87.2562 39.1482 87.423 38.9259C87.9818 38.1809 88.6941 37.5646 89.5118 37.1189C90.3294 36.6731 91.2333 36.4083 92.1623 36.3423C93.0912 36.2762 94.0235 36.4106 94.8959 36.7362C95.7684 37.0619 96.5607 37.5712 97.2192 38.2297C97.8777 38.8882 98.3871 39.6805 98.7127 40.553C99.0383 41.4255 99.1727 42.3578 99.1067 43.2867C99.0407 44.2156 98.7758 45.1195 98.3301 45.9372C97.8843 46.7548 97.2681 47.4671 96.523 48.0259C96.2846 48.2054 96.1002 48.447 95.9898 48.7243C95.8795 49.0016 95.8475 49.3039 95.8974 49.5981C98.0424 62.1573 98.0445 73.6603 95.9035 84.7672C95.8465 85.0658 95.8743 85.3744 95.9838 85.6581C96.0933 85.9417 96.2801 86.189 96.523 86.3718C97.2681 86.9306 97.8843 87.6429 98.3301 88.4606C98.7758 89.2782 99.0407 90.1821 99.1067 91.1111C99.1727 92.04 99.0383 92.9722 98.7127 93.8447C98.3871 94.7172 97.8777 95.5095 97.2192 96.168C96.5607 96.8265 95.7684 97.3359 94.8959 97.6615C94.0235 97.9871 93.0912 98.1215 92.1623 98.0555C91.2333 97.9895 90.3294 97.7246 89.5118 97.2789C88.6941 96.8331 87.9818 96.2169 87.423 95.4718C87.2561 95.2497 87.0348 95.0742 86.7805 94.9622C86.5262 94.8501 86.2473 94.8053 85.9707 94.832C79.3691 95.4617 72.664 95.9106 66.038 96.1706Z" fill="white"/>
<path d="M46.0757 81.1366C47.0846 82.5629 49.3537 83.4488 52.0002 83.4488C54.6468 83.4488 56.9159 82.5629 57.9248 81.1366C58.0511 80.9625 58.1416 80.765 58.191 80.5557C58.2404 80.3464 58.2478 80.1293 58.2127 79.9171C58.1776 79.7049 58.1007 79.5018 57.9865 79.3195C57.8722 79.1373 57.723 78.9795 57.5474 78.8554C57.3717 78.7312 57.1732 78.6432 56.9632 78.5964C56.7533 78.5495 56.5362 78.5448 56.3244 78.5826C56.1127 78.6203 55.9105 78.6997 55.7297 78.8161C55.5488 78.9326 55.3929 79.0838 55.271 79.2609C55.0632 79.5546 53.9507 80.1988 52.0007 80.1988C50.0507 80.1988 48.9377 79.5546 48.7303 79.2609C48.6084 79.0838 48.4525 78.9326 48.2716 78.8161C48.0908 78.6997 47.8886 78.6203 47.6769 78.5826C47.4651 78.5448 47.248 78.5495 47.0381 78.5964C46.8281 78.6432 46.6296 78.7312 46.4539 78.8554C46.2783 78.9795 46.129 79.1373 46.0148 79.3195C45.9006 79.5018 45.8238 79.7049 45.7886 79.9171C45.7535 80.1293 45.7609 80.3464 45.8103 80.5557C45.8597 80.765 45.9502 80.9625 46.0765 81.1366H46.0757Z" fill="white"/>
<g clip-path="url(#clip0)">
<path d="M54.1096 24.2897H53.7136L55.543 22.4604C56.818 21.1852 55.9143 19 54.1097 19H48.8198C47.7021 19 46.7927 19.9093 46.7927 21.0271C46.7927 22.1449 47.7021 23.0542 48.8198 23.0542H49.2158L47.3864 24.8835C46.1114 26.1587 47.0152 28.344 48.8197 28.344H54.1096C55.2273 28.344 56.1366 27.4346 56.1366 26.3169C56.1366 25.1991 55.2274 24.2897 54.1096 24.2897ZM54.1096 27.2288H48.8198C48.0087 27.2288 47.5998 26.2474 48.1751 25.6722L50.9563 22.891C51.3063 22.5409 51.0584 21.939 50.562 21.939H48.8198C48.317 21.939 47.9079 21.5299 47.9079 21.0271C47.9079 20.5242 48.317 20.1152 48.8198 20.1152H54.1096C54.9206 20.1152 55.3297 21.0965 54.7542 21.6718L51.973 24.453C51.6231 24.8031 51.871 25.405 52.3674 25.405H54.1096C54.6124 25.405 55.0214 25.8141 55.0214 26.3169C55.0214 26.8198 54.6124 27.2288 54.1096 27.2288Z" fill="white"/>
<path d="M83.0986 12.0283L77.0846 12.0283L84.532 4.22118C85.807 2.94611 84.9034 0.760742 83.0987 0.760742H74.1506C73.8426 0.760742 73.593 1.01034 73.593 1.31835C73.593 1.62635 73.8426 1.87595 74.1506 1.87595H83.0987C83.9098 1.87595 84.3188 2.85734 83.7434 3.43261L75.344 12.1915C74.9941 12.5416 75.242 13.1435 75.7384 13.1435H83.0987C83.6014 13.1435 84.0105 13.5526 84.0105 14.0553C84.0105 14.5582 83.6014 14.9672 83.0987 14.9672L77.7649 14.9483C77.4569 14.9483 77.2073 15.1979 77.2073 15.5059C77.2073 15.8139 77.4569 16.0635 77.7649 16.0635L83.0987 16.0824C84.2164 16.0824 85.1257 15.1731 85.1257 14.0553C85.1256 12.9376 84.2164 12.0283 83.0986 12.0283Z" fill="white"/>
<path d="M80.3506 14.9476H72.3797C71.5687 14.9476 71.1596 13.9663 71.7351 13.3911L80.4752 4.65099C80.8251 4.30091 80.5772 3.69899 80.0809 3.69899H73.0017C72.4988 3.69899 72.0898 3.28997 72.0898 2.78714C72.0898 2.28431 72.4988 1.87522 73.0017 1.87522L74.1051 1.87522C74.4132 1.87522 74.6628 1.62562 74.6628 1.31761C74.6628 1.00961 74.4132 0.76001 74.1051 0.76001H73.0017C71.8839 0.76001 70.9746 1.66934 70.9746 2.78714C70.9746 3.90488 71.8839 4.8142 73.0017 4.8142H78.7347L70.9464 12.6025C69.6716 13.8774 70.575 16.0628 72.3797 16.0628H80.3506C80.6586 16.0628 80.9082 15.8132 80.9082 15.5052C80.9082 15.1972 80.6586 14.9476 80.3506 14.9476Z" fill="white"/>
<path d="M68.1684 17.8286H65.1134L69.6017 13.3403C70.8765 12.0653 69.9731 9.87988 68.1684 9.87988H60.2196C59.1019 9.87988 58.1926 10.7892 58.1926 11.9069C58.1926 13.0247 59.1019 13.9341 60.2196 13.9341H63.2746L58.7862 18.4224C57.5115 19.6973 58.4149 21.8828 60.2196 21.8828H61.5917C61.8997 21.8828 62.1493 21.6332 62.1493 21.3252C62.1493 21.0172 61.8997 20.7676 61.5917 20.7676H60.2196C59.4085 20.7676 58.9995 19.7863 59.5749 19.211L65.0152 13.7708C65.3651 13.4207 65.1172 12.8188 64.6209 12.8188H60.2197C59.7169 12.8188 59.3078 12.4097 59.3078 11.9069C59.3078 11.404 59.7169 10.995 60.2197 10.995H68.1684C68.9793 10.995 69.3884 11.9763 68.8131 12.5516L63.3728 17.9919C63.0229 18.342 63.2707 18.9439 63.7671 18.9439H68.1683C68.6711 18.9439 69.0801 19.353 69.0801 19.8558C69.0801 20.3586 68.6711 20.7676 68.1683 20.7676H61.5917C61.2837 20.7676 61.0341 21.0172 61.0341 21.3252C61.0341 21.6332 61.2837 21.8828 61.5917 21.8828H68.1683C69.286 21.8828 70.1953 20.9735 70.1953 19.8558C70.1954 18.7379 69.2861 17.8286 68.1684 17.8286Z" fill="white"/>
</g>
<defs>
<clipPath id="clip0">
<rect width="38" height="38" fill="white" transform="translate(46.7898)"/>
</clipPath>
</defs>
</svg>
